<?xml version="1.0" encoding="UTF-8"?>
<svg width="319.994156px" height="466.44421px" viewBox="0 0 319.994156 466.44421" version="1.1" xmlns="http://www.w3.org/2000/svg" xmlns:xlink="http://www.w3.org/1999/xlink">
    <title>Metamodernist_Vol3-04</title>
    <g id="Page-1" stroke="none" stroke-width="1" fill="none" fill-rule="evenodd">
        <g id="page-d'acceuil-(1440px)-" transform="translate(-1024.310833, -7660.599581)" fill="#FFFFFF" fill-rule="nonzero">
            <g id="6-footer-" transform="translate(-1.609827, 7455.043791)">
                <g id="Metamodernist_Vol3-04" transform="translate(1025.920660, 205.555790)">
                    <path d="M239.512623,275.462854 L80.4784422,275.462854 L0.95826069,137.732973 L80.4784422,0 L239.515714,0 L319.035895,137.732973 L239.512623,275.462854 Z M81.8138248,273.144482 L238.174149,273.144482 L316.355857,137.729882 L238.17724,2.31837264 L81.8138248,2.31837264 L3.6352083,137.732973 L81.8138248,273.144482 Z" id="Shape"></path>
                    <path d="M159.995532,299.33591 C156.007932,299.33591 80.5526301,298.791865 76.6670375,297.774873 C72.2961323,296.628051 0.995354652,174.514727 0.995354652,173.473005 C0.995354652,172.431283 72.2992235,50.3179597 76.6670375,49.1711381 L76.6670375,49.1711381 C80.5526301,48.1541453 156.007932,47.6101005 159.995532,47.6101005 C163.983133,47.6101005 239.438435,48.1541453 243.324027,49.1711381 C247.694933,50.3179597 318.99571,172.428192 318.99571,173.473005 C318.99571,174.517819 247.691841,296.628051 243.324027,297.774873 C239.438435,298.791865 163.983133,299.33591 159.995532,299.33591 Z M3.43737383,173.469914 C7.27041659,180.33848 72.3919584,291.867659 77.4861959,295.629605 C80.5093538,296.374576 151.06207,297.017538 159.995532,297.017538 C168.928995,297.017538 239.481711,296.374576 242.733615,295.530688 C247.605289,291.867659 312.720648,180.33848 316.553691,173.469914 C312.720648,166.601349 247.599107,55.0721692 242.504869,51.3102232 C239.481711,50.5652528 168.928995,49.9222908 159.995532,49.9222908 C151.167169,49.9222908 82.1723998,50.549797 77.3996433,51.3782288 C71.6995378,56.2560848 7.24877845,166.638443 3.43737383,173.469914 Z" id="Shape"></path>
                    <path d="M159.995532,323.208966 C148.548954,323.208966 79.8694829,322.055962 72.4846933,320.120894 C69.0318636,319.215183 55.9871536,300.699113 33.7153205,265.092001 C22.6149523,247.339449 0.853161131,211.534502 0.853161131,209.209947 C0.853161131,206.885392 22.6180434,171.080445 33.7184116,153.327893 C55.9902448,117.717689 69.0318636,99.2047107 72.4877845,98.2989998 C79.8725741,96.3639315 148.552045,95.2109275 159.998624,95.2109275 C171.445202,95.2109275 240.121582,96.3639315 247.509463,98.2989998 C250.962292,99.2047107 264.007002,117.72078 286.278836,153.327893 C297.382295,171.080445 319.144086,206.885392 319.144086,209.209947 C319.144086,211.534502 297.376113,247.339449 286.272653,265.092001 C264.00082,300.702205 250.959201,319.215183 247.50328,320.120894 C240.121582,322.055962 171.442111,323.208966 159.995532,323.208966 Z M3.20553657,209.209947 C5.82684323,216.937856 67.1091599,315.935458 73.0781967,317.8798 C79.946762,319.681949 147.009555,320.890593 159.995532,320.890593 C172.978419,320.890593 240.044303,319.681949 246.915959,317.8798 C252.878814,315.93855 314.164222,216.937856 316.785528,209.213038 C314.164222,201.485129 252.881905,102.487526 246.912868,100.543185 C240.044303,98.7410362 172.98151,97.5323913 159.995532,97.5323913 C147.012646,97.5323913 79.9684002,98.7410362 73.0751055,100.543185 C67.1029776,102.4968 5.82375206,201.485129 3.20553657,209.209947 Z" id="Shape"></path>
                    <path d="M159.995532,347.082022 C144.131681,347.082022 79.4892698,345.40352 68.2992579,342.470006 C57.5883763,339.660138 0.707876445,251.178674 0.707876445,244.949979 C0.707876445,238.721285 57.5914675,150.236729 68.2992579,147.429953 L68.2992579,147.429953 C79.4892698,144.496439 144.12859,142.817937 159.995532,142.817937 C175.862475,142.817937 240.498704,144.496439 251.688716,147.429953 C262.396506,150.236729 319.280097,238.721285 319.280097,244.949979 C319.280097,251.178674 262.399597,339.66323 251.688716,342.470006 C240.501795,345.40352 175.862475,347.082022 159.995532,347.082022 Z M68.8896701,149.671046 C59.0690436,152.245986 3.83304276,239.741369 3.02624908,245.008711 C3.83304276,250.15859 59.0690436,337.650882 68.8927613,340.225821 C79.2079739,342.930589 141.600018,344.760558 159.998624,344.760558 C178.397229,344.760558 240.789273,342.930589 251.104486,340.225821 C260.925112,337.650882 316.161113,250.155499 316.970998,244.888156 C316.164204,239.738278 260.928204,152.245986 251.104486,149.671046 C240.789273,146.966278 178.397229,145.136309 159.998624,145.136309 C141.600018,145.136309 79.2048828,146.966278 68.8896701,149.671046 L68.8896701,149.671046 Z" id="Shape"></path>
                    <path d="M159.995532,370.951987 C137.859711,370.951987 78.6824761,368.633614 64.1169137,364.816027 C50.0861225,361.137542 0.565682924,287.855329 0.565682924,280.686921 C0.565682924,273.518513 50.0892136,200.236299 64.1169137,196.557815 C78.679385,192.740228 137.856619,190.421855 159.995532,190.421855 C182.131354,190.421855 241.308589,192.740228 255.87106,196.557815 C269.901851,200.236299 319.422291,273.515421 319.422291,280.686921 C319.422291,287.85842 269.901851,361.140634 255.87106,364.819118 C241.308589,368.633614 182.131354,370.951987 159.995532,370.951987 Z M159.995532,192.740228 C138.570678,192.740228 78.8524901,195.092603 64.7073259,198.801999 L64.7073259,198.801999 C49.9191996,202.678318 3.01079327,276.214007 2.88405556,280.690012 C3.0077021,285.159834 49.9161085,358.698614 64.7073259,362.574933 C78.8524901,366.28433 138.573769,368.633614 159.995532,368.633614 C181.417296,368.633614 241.138575,366.281239 255.283739,362.574933 C270.071865,358.698614 316.980272,285.159834 317.107009,280.686921 C316.983363,276.217098 270.074956,202.678318 255.283739,198.801999 C241.138575,195.092603 181.420387,192.740228 159.995532,192.740228 Z" id="Shape"></path>
                    <path d="M159.995532,394.825042 C131.111701,394.825042 77.7736741,391.84207 59.9345694,387.165139 C42.0336415,382.472753 0.423489402,324.99875 0.423489402,316.426953 C0.423489402,307.855157 42.0367327,250.381154 59.9376606,245.688767 L60.2313211,246.81086 L59.9376606,245.688767 C77.7767652,241.011837 131.114792,238.028864 159.998624,238.028864 C188.879364,238.028864 242.217391,241.011837 260.059587,245.688767 C277.960515,250.381154 319.567575,307.852066 319.567575,316.426953 C319.567575,325.001841 277.960515,382.472753 260.059587,387.165139 C242.2143,391.84207 188.879364,394.825042 159.995532,394.825042 Z M159.995532,240.347237 C131.915403,240.347237 77.9158676,243.373486 60.5249817,247.932952 L60.5249817,247.932952 C43.310292,252.44296 2.7449532,309.141081 2.7449532,316.426953 C2.7449532,323.712826 43.310292,380.410947 60.5249817,384.924046 C77.9158676,389.483512 131.915403,392.509761 159.995532,392.509761 C188.075662,392.509761 242.072106,389.483512 259.466083,384.924046 C276.680773,380.410947 317.246112,323.715917 317.246112,316.426953 C317.246112,309.13799 276.680773,252.446051 259.466083,247.932952 C242.075197,243.370395 188.078753,240.347237 159.995532,240.347237 Z" id="Shape"></path>
                    <path d="M159.995532,418.698098 C126.712975,418.698098 77.393461,415.186537 55.7522252,409.514251 C34.6735812,403.987251 0.284387044,361.910333 0.284387044,352.166986 C0.284387044,342.423639 34.6735812,300.34363 55.7522252,294.81972 C77.393461,289.147435 126.712975,285.635874 159.995532,285.635874 C193.27809,285.635874 242.594513,289.147435 264.23884,294.81972 C285.317484,300.346721 319.706678,342.42673 319.706678,352.166986 C319.706678,361.907242 285.317484,403.987251 264.23884,409.514251 C242.594513,415.183445 193.27809,418.698098 159.995532,418.698098 Z M159.995532,287.951155 C126.855168,287.951155 77.8045857,291.431805 56.3395463,297.060814 C34.991971,302.65582 2.59966852,344.692553 2.59966852,352.166986 C2.59966852,359.641419 34.991971,401.675061 56.3395463,407.270067 C77.8014945,412.895984 126.855168,416.379726 159.995532,416.379726 C193.132805,416.379726 242.186479,412.899076 263.648427,407.270067 C284.996003,401.675061 317.388305,359.638328 317.388305,352.166986 C317.388305,344.695644 284.999094,302.65582 263.651519,297.060814 C242.186479,291.434896 193.132805,287.951155 159.995532,287.951155 Z" id="Shape"></path>
                    <path d="M159.995532,442.571154 C119.575478,442.571154 76.0024374,438.265163 51.5698809,431.860273 C26.0646908,425.174086 0.142193522,398.828099 0.142193522,387.903927 C0.142193522,376.979755 26.0646908,350.633769 51.5698809,343.947582 L51.5698809,343.947582 C76.0055285,337.542691 119.578569,333.239792 159.995532,333.239792 C200.412495,333.239792 243.985536,337.542691 268.421184,343.947582 C293.926374,350.63686 319.848871,376.982847 319.848871,387.903927 C319.848871,398.825008 293.926374,425.174086 268.421184,431.860273 C243.988628,438.265163 200.415587,442.571154 159.995532,442.571154 Z M52.1602932,346.191767 C26.4881802,352.92123 2.46056616,378.945735 2.46056616,387.907019 C2.46056616,396.868302 26.4881802,422.889716 52.1602932,429.619179 C76.4197445,435.980794 119.757857,440.252782 159.998624,440.252782 C200.23939,440.252782 243.574412,435.977702 267.833863,429.619179 C293.505976,422.889716 317.53359,396.868302 317.53359,387.907019 C317.53359,378.945735 293.505976,352.924321 267.833863,346.191767 C243.57132,339.830152 200.236299,335.558164 159.998624,335.558164 C119.757857,335.558164 76.4197445,339.830152 52.1602932,346.191767 L52.1602932,346.191767 Z" id="Shape"></path>
                    <path d="M159.995532,466.44421 C117.473487,466.44421 77.4800135,462.101125 47.3844455,454.209385 C16.8282942,446.197089 0,435.340923 0,423.64396 C0,411.946997 16.8282942,401.090831 47.3875367,393.078535 C77.4769224,385.189886 117.470396,380.84371 159.998624,380.84371 C202.526851,380.84371 242.517234,385.186795 272.606619,393.078535 C303.162771,401.08774 319.994156,411.943906 319.994156,423.64396 C319.994156,435.344014 303.165862,446.197089 272.606619,454.209385 C242.511051,462.098034 202.517578,466.44421 159.995532,466.44421 Z M159.995532,383.165174 C117.658957,383.165174 77.8756825,387.483529 47.9748578,395.32272 C18.9581058,402.926982 2.31837264,413.251468 2.31837264,423.64396 C2.31837264,434.036452 18.9581058,444.360938 47.9748578,451.968291 C77.8818648,459.807482 117.665139,464.125837 159.995532,464.125837 C202.322834,464.125837 242.106109,459.807482 272.016207,451.968291 C301.032959,444.360938 317.672692,434.036452 317.672692,423.64396 C317.672692,413.251468 301.032959,402.926982 272.016207,395.32272 C242.115382,387.483529 202.332108,383.165174 159.995532,383.165174 Z" id="Shape"></path>
                </g>
            </g>
        </g>
    </g>
</svg>