<?xml version="1.0" encoding="UTF-8"?>
<svg width="624.308782px" height="514.2745px" viewBox="0 0 624.308782 514.2745" version="1.1" xmlns="http://www.w3.org/2000/svg" xmlns:xlink="http://www.w3.org/1999/xlink">
    <title>Metamodernist_Vol3-04</title>
    <g id="Page-1" stroke="none" stroke-width="1" fill="none" fill-rule="evenodd">
        <g id="page-d'acceuil-(1440px)-" transform="translate(-815.691218, -9313.725500)" fill="#FFFFFF" fill-rule="nonzero">
            <g id="6-footer-" transform="translate(-0.219654, 9009.000000)">
                <g id="Metamodernist_Vol3-04" transform="translate(1342.386727, 825.669539) rotate(-34.000000) translate(-1342.386727, -825.669539) translate(954.886727, 458.669539)">
                    <path d="M580.080227,433.47035 L194.912287,433.47035 L2.32082999,216.737607 L194.912287,3.28365924e-13 L580.087713,3.28365924e-13 L772.67917,216.737607 L580.080227,433.47035 Z M198.146476,429.822142 L576.838551,429.822142 L766.188333,216.732743 L576.846038,3.64820804 L198.146476,3.64820804 L8.80418088,216.737607 L198.146476,429.822142 Z" id="Shape"></path>
                    <path d="M387.496257,471.037165 C377.838609,471.037165 195.091964,470.181052 185.681373,468.580705 C175.095393,466.776058 2.41066857,274.617644 2.41066857,272.978382 C2.41066857,271.339121 175.10288,79.1807072 185.681373,77.3760603 L185.681373,77.3760603 C195.091964,75.7757131 377.838609,74.9196003 387.496257,74.9196003 C397.153904,74.9196003 579.90055,75.7757131 589.311141,77.3760603 C599.89712,79.1807072 772.581845,271.334257 772.581845,272.978382 C772.581845,274.622508 599.889634,466.776058 589.311141,468.580705 C579.90055,470.181052 397.153904,471.037165 387.496257,471.037165 Z M8.32504178,272.973518 C17.6083618,283.781943 175.327476,459.285071 187.665308,465.204896 C194.987152,466.377187 365.860132,467.388957 387.496257,467.388957 C409.132381,467.388957 580.005361,466.377187 587.88121,465.049239 C599.68001,459.285071 757.384152,283.781943 766.667472,272.973518 C757.384152,262.165094 599.665037,86.6619659 587.327206,80.7421403 C580.005361,79.5698494 409.132381,78.5580797 387.496257,78.5580797 C366.114675,78.5580797 199.014915,79.545528 187.455684,80.8491544 C173.650489,88.5249841 17.5559559,262.223465 8.32504178,272.973518 Z" id="Shape"></path>
                    <path d="M387.496257,508.603979 C359.773568,508.603979 193.437437,506.789603 175.552073,503.744566 C167.189598,502.319333 135.596364,473.182311 81.655783,417.1507 C54.7715878,389.215155 2.06628735,332.87223 2.06628735,329.214293 C2.06628735,325.556357 54.7790744,269.213432 81.6632695,241.277887 C135.603851,185.241411 167.189598,156.109254 175.559559,154.684021 C193.444923,151.638983 359.781055,149.824608 387.503743,149.824608 C415.226432,149.824608 581.555077,151.638983 599.447927,154.684021 C607.810402,156.109254 639.403636,185.246276 693.344217,241.277887 C720.235899,269.213432 772.941199,325.556357 772.941199,329.214293 C772.941199,332.87223 720.220926,389.215155 693.329244,417.1507 C639.388663,473.187175 607.802915,502.319333 599.432954,503.744566 C581.555077,506.789603 415.218945,508.603979 387.496257,508.603979 Z M7.76355065,329.214293 C14.1121437,341.374987 162.532965,497.158334 176.98949,500.217965 C193.6246,503.053838 356.045267,504.955771 387.496257,504.955771 C418.93976,504.955771 581.367913,503.053838 598.01051,500.217965 C612.452062,497.163198 760.88037,341.374987 767.228963,329.219158 C760.88037,317.058464 612.459548,161.275117 598.003024,158.215486 C581.367913,155.379612 418.947246,153.47768 387.496257,153.47768 C356.052754,153.47768 193.677006,155.379612 176.982003,158.215486 C162.517992,161.289709 14.1046571,317.058464 7.76355065,329.214293 Z" id="Shape"></path>
                    <path d="M387.496257,546.170793 C349.075291,546.170793 192.516591,543.529491 165.415286,538.913291 C139.474396,534.491663 1.71441958,395.256587 1.71441958,385.455068 C1.71441958,375.653549 139.481883,236.413609 165.415286,231.996846 L165.415286,231.996846 C192.516591,227.380646 349.067804,224.739344 387.496257,224.739344 C425.924709,224.739344 582.468436,227.380646 609.569741,231.996846 C635.503144,236.413609 773.270607,375.653549 773.270607,385.455068 C773.270607,395.256587 635.510631,534.496527 609.569741,538.913291 C582.475922,543.529491 425.924709,546.170793 387.496257,546.170793 Z M166.845217,235.523447 C143.060453,239.57539 9.28331997,377.258761 7.32933085,385.54749 C9.28331997,393.651376 143.060453,531.329883 166.852703,535.381826 C191.835315,539.638069 342.943807,542.517721 387.503743,542.517721 C432.063679,542.517721 583.172171,539.638069 608.154783,535.381826 C631.939547,531.329883 765.71668,393.646512 767.678156,385.357783 C765.724167,377.253897 631.947034,239.57539 608.154783,235.523447 C583.172171,231.267204 432.063679,228.387552 387.503743,228.387552 C342.943807,228.387552 191.827829,231.267204 166.845217,235.523447 L166.845217,235.523447 Z" id="Shape"></path>
                    <path d="M387.496257,583.732743 C333.885084,583.732743 190.562602,580.084535 155.285986,574.077152 C121.304543,568.288662 1.37003835,452.971238 1.37003835,441.690979 C1.37003835,430.41072 121.31203,315.093296 155.285986,309.304806 C190.555115,303.297423 333.877597,299.649215 387.496257,299.649215 C441.10743,299.649215 584.429911,303.297423 619.699041,309.304806 C653.680484,315.093296 773.614989,430.405856 773.614989,441.690979 C773.614989,452.976103 653.680484,568.293527 619.699041,574.082017 C584.429911,580.084535 441.10743,583.732743 387.496257,583.732743 Z M387.496257,303.297423 C335.60699,303.297423 190.974362,306.999138 156.715917,312.836271 L156.715917,312.836271 C120.90027,318.936075 7.29189811,434.65237 6.98494962,441.695843 C7.28441156,448.729589 120.892783,564.450748 156.715917,570.550551 C190.974362,576.387684 335.614477,580.084535 387.496257,580.084535 C439.378037,580.084535 584.018151,576.38282 618.276597,570.550551 C654.092244,564.450748 767.700615,448.729589 768.007564,441.690979 C767.708102,434.657234 654.09973,318.936075 618.276597,312.836271 C584.018151,306.999138 439.385523,303.297423 387.496257,303.297423 Z" id="Shape"></path>
                    <path d="M387.496257,621.299557 C317.541949,621.299557 188.361557,616.60553 145.156686,609.245878 C101.802085,601.861905 1.02565713,511.420396 1.02565713,497.931754 C1.02565713,484.443113 101.809571,394.001604 145.164173,386.617631 L145.875395,388.383363 L145.164173,386.617631 C188.369043,379.257979 317.549435,374.563951 387.503743,374.563951 C457.450565,374.563951 586.630957,379.257979 629.843314,386.617631 C673.197915,394.001604 773.966856,484.438249 773.966856,497.931754 C773.966856,511.42526 673.197915,601.861905 629.843314,609.245878 C586.62347,616.60553 457.450565,621.299557 387.496257,621.299557 Z M387.496257,378.212159 C319.488451,378.212159 188.705938,382.974287 146.586617,390.149096 L146.586617,390.149096 C104.894029,397.246077 6.64805495,486.466653 6.64805495,497.931754 C6.64805495,509.396856 104.894029,598.617432 146.586617,605.719277 C188.705938,612.894086 319.488451,617.656214 387.496257,617.656214 C455.504062,617.656214 586.279089,612.894086 628.405897,605.719277 C670.098484,598.617432 768.344459,509.40172 768.344459,497.931754 C768.344459,486.461788 670.098484,397.250941 628.405897,390.149096 C586.286575,382.969423 455.511549,378.212159 387.496257,378.212159 Z" id="Shape"></path>
                    <path d="M387.496257,658.866372 C306.888591,658.866372 187.440711,653.340552 135.027386,644.414603 C83.976613,635.717275 0.688762449,569.504732 0.688762449,554.172529 C0.688762449,538.840327 83.976613,472.622919 135.027386,463.930455 C187.440711,455.004506 306.888591,449.478687 387.496257,449.478687 C468.103923,449.478687 587.544316,455.004506 639.965127,463.930455 C691.0159,472.627783 774.303751,538.845191 774.303751,554.172529 C774.303751,569.499867 691.0159,635.717275 639.965127,644.414603 C587.544316,653.335688 468.103923,658.866372 387.496257,658.866372 Z M387.496257,453.122031 C307.232972,453.122031 188.436422,458.599207 136.44983,467.457057 C84.7477275,476.261399 6.29618717,542.410707 6.29618717,554.172529 C6.29618717,565.934352 84.7477275,632.078796 136.44983,640.883138 C188.428936,649.736123 307.232972,655.218164 387.496257,655.218164 C467.752055,655.218164 586.556091,649.740987 638.535196,640.883138 C690.237299,632.078796 768.68884,565.929488 768.68884,554.172529 C768.68884,542.415571 690.244786,476.261399 638.542683,467.457057 C586.556091,458.604072 467.752055,453.122031 387.496257,453.122031 Z" id="Shape"></path>
                    <path d="M387.496257,696.433186 C289.60215,696.433186 184.071765,689.657247 124.898086,679.578465 C63.1265758,669.057033 0.344381225,627.598797 0.344381225,610.40844 C0.344381225,593.218084 63.1265758,551.759848 124.898086,541.238416 L124.898086,541.238416 C184.079251,531.159633 289.609637,524.388559 387.496257,524.388559 C485.382877,524.388559 590.913262,531.159633 650.094427,541.238416 C711.865938,551.764712 774.648132,593.222948 774.648132,610.40844 C774.648132,627.593932 711.865938,669.057033 650.094427,679.578465 C590.920749,689.657247 485.390363,696.433186 387.496257,696.433186 Z M126.328017,544.769881 C64.1522329,555.359413 5.9592925,596.311764 5.9592925,610.413305 C5.9592925,624.514845 64.1522329,665.462332 126.328017,676.051864 C185.082449,686.062546 290.043857,692.784978 387.503743,692.784978 C484.96363,692.784978 589.917551,686.057682 648.671983,676.051864 C710.847767,665.462332 769.040708,624.514845 769.040708,610.413305 C769.040708,596.311764 710.847767,555.364277 648.671983,544.769881 C589.910065,534.759198 484.956143,528.036767 387.503743,528.036767 C290.043857,528.036767 185.082449,534.759198 126.328017,544.769881 L126.328017,544.769881 Z" id="Shape"></path>
                    <path d="M387.496257,734 C284.511297,734 187.650335,727.16569 114.7613,714.74719 C40.7567693,702.138983 1.50158403e-12,685.055641 1.50158403e-12,666.649215 C1.50158403e-12,648.24279 40.7567693,631.159448 114.768786,618.551241 C187.642848,606.137605 284.503811,599.298431 387.503743,599.298431 C490.503676,599.298431 587.357152,606.13274 660.231214,618.551241 C734.235744,631.154583 775,648.237925 775,666.649215 C775,685.060505 734.243231,702.138983 660.231214,714.74719 C587.342179,727.160826 490.481216,734 387.496257,734 Z M387.496257,602.951503 C284.96049,602.951503 188.608613,609.746899 116.191231,622.082706 C45.9150011,634.048828 5.61491127,650.295515 5.61491127,666.649215 C5.61491127,683.002916 45.9150011,699.249602 116.191231,711.220589 C188.623586,723.556396 284.975463,730.351792 387.496257,730.351792 C490.009563,730.351792 586.361441,723.556396 658.801283,711.220589 C729.077512,699.249602 769.377602,683.002916 769.377602,666.649215 C769.377602,650.295515 729.077512,634.048828 658.801283,622.082706 C586.383901,609.746899 490.032023,602.951503 387.496257,602.951503 Z" id="Shape"></path>
                </g>
            </g>
        </g>
    </g>
</svg>