<?xml version="1.0" encoding="UTF-8"?>
<svg width="123.80172px" height="43.2618157px" viewBox="0 0 123.80172 43.2618157" version="1.1" xmlns="http://www.w3.org/2000/svg" xmlns:xlink="http://www.w3.org/1999/xlink">
    <title>fri-son</title>
    <g id="Page-1" stroke="none" stroke-width="1" fill="none" fill-rule="evenodd">
        <g id="page-d'acceuil-(1440px)--copy" transform="translate(-157.810250, -9255.089035)" fill="#A2FF00" fill-rule="nonzero">
            <g id="6-footer-" transform="translate(-1.609827, 9009.000000)">
                <g id="fri-son" transform="translate(159.420077, 246.089035)">
                    <g id="Group">
                        <path d="M84.1003516,16.8671639 C78.3514743,16.8671639 73.506151,20.562959 71.7008972,25.6870121 C70.7472832,23.0035434 68.9667505,20.706341 66.6528614,19.1353191 C64.7518136,17.8405548 63.4928947,15.6799361 63.4928947,13.2257551 C63.4928947,9.33157364 66.6992133,6.15430229 70.6218239,6.15430229 L70.6218239,0.0580944382 C63.3538389,0.0580944382 57.4065753,5.92316059 57.4065753,13.2263731 C57.4065753,17.7713358 59.7056318,21.7872684 63.1950062,24.1685223 L63.1950062,24.1777927 C65.1071785,25.4589605 66.3648613,27.6344118 66.3648613,30.0953911 C66.3648613,33.9833923 63.1585427,37.1649898 59.2377862,37.1649898 C55.3368064,37.1649898 52.1675694,33.9833923 52.1675694,30.0953911 L46.0695075,30.0953911 C46.0688895,37.338037 51.990814,43.2618157 59.2365501,43.2618157 C64.9786291,43.2618157 69.8832829,39.5919776 71.6996612,34.4561821 C73.5110952,39.5715828 78.3928821,43.2618157 84.1003516,43.2618157 C91.376989,43.2618157 97.3254887,37.3955135 97.3254887,30.093537 C97.3261067,22.7927966 91.3992379,16.8671639 84.1003516,16.8671639 M84.1003516,37.1643718 C80.2104964,37.1643718 77.0313709,33.9821562 77.0313709,30.094155 C77.0313709,26.1709264 80.2117324,22.9664619 84.1003516,22.9664619 C88.0229622,22.9664619 91.2274267,26.1727804 91.2274267,30.094155 C91.2274267,33.9815382 88.0229622,37.1643718 84.1003516,37.1643718" id="Shape"></path>
                        <path d="M117.622697,42.6722189 L123.80172,42.6722189 L123.80172,30.093537 C123.80172,22.7927966 117.797598,16.8659278 110.553716,16.8659278 C103.249885,16.8659278 97.3254887,22.7927966 97.3254887,30.093537 L97.3254887,42.6858155 L103.426023,42.6858155 L103.426023,30.093537 C103.426023,26.2055358 106.631105,22.9658439 110.553716,22.9658439 C114.441099,22.9658439 117.622697,26.2055358 117.622697,30.093537 L117.622697,42.6722189 L117.622697,42.6722189 Z" id="Path"></path>
                        <path d="M35.6644228,16.3072324 L35.6644228,16.3072324 C31.6107907,16.3072324 27.971854,18.1711986 25.5504283,21.0777746 C23.1308568,18.1705806 19.4801776,16.3072324 15.4259274,16.3072324 L13.7875406,16.3072324 L13.7875406,13.1682787 C13.7875406,9.28027748 16.9926232,6.09991601 20.9158518,6.09991601 L20.9158518,0 C13.6478668,0 7.68886069,5.86877431 7.68886069,13.1682787 L7.68886069,16.3072324 L0,16.3072324 L0,22.4052943 L7.68886069,22.4052943 L7.68886069,42.7204249 L13.7875406,42.7204249 L13.7875406,22.4052943 L15.4259274,22.4052943 C19.3250531,22.4052943 22.4949081,25.5770034 22.4949081,29.4755111 L22.4949081,42.6919957 L28.5954421,42.6919957 L28.5954421,29.4755111 C28.5954421,25.5763854 31.7764216,22.4052943 35.6644228,22.4052943 L37.3052817,22.4052943 L37.3052817,42.6919957 L43.4021075,42.6919957 L43.4021075,16.3072324 L35.6644228,16.3072324 Z" id="Path"></path>
                        <polygon id="Path" points="55.7465576 16.3072324 46.0410783 22.4052943 46.0410783 28.6566267 55.7465576 22.7112172"></polygon>
                    </g>
                    <rect id="Rectangle" x="37.3034276" y="0.0605665419" width="6.09682588" height="14.605189"></rect>
                </g>
            </g>
        </g>
    </g>
</svg>