<?xml version="1.0" encoding="UTF-8"?>
<svg width="83.905153px" height="82.8861531px" viewBox="0 0 83.905153 82.8861531" version="1.1" xmlns="http://www.w3.org/2000/svg" xmlns:xlink="http://www.w3.org/1999/xlink">
    <title>etat_de_fribourg</title>
    <g id="Page-1" stroke="none" stroke-width="1" fill="none" fill-rule="evenodd">
        <g id="page-d'acceuil-(1440px)-" transform="translate(-728.395892, -7681.263734)" fill="#FFFFFF" fill-rule="nonzero">
            <g id="6-footer-" transform="translate(-1.609827, 7455.043791)">
                <g id="partenaires" transform="translate(155.420077, 226.219943)">
                    <g id="etat_de_fribourg" transform="translate(574.585642, 0.000000)">
                        <path d="M0.455387533,39.6243375 L0.455387533,41.3320407 C5.4646504,40.079725 10.8154539,37.0058591 13.7754729,34.2735339 C15.7108699,32.4519838 17.4185731,30.288893 18.7847357,27.7842616 C18.7847357,27.7842616 18.8985826,27.6704147 18.8985826,27.5565678 C20.1508983,25.2796302 21.0616734,22.547305 21.7447547,19.3595922 C23.5663048,10.5933822 20.8339796,1.8271722 20.2647452,0.688703368 C19.5816639,-0.108224815 18.6708889,0.00562206831 17.9878076,0.00562206831 C17.8739607,0.00562206831 17.6462669,0.00562206831 17.53242,0.00562206831 L0.455387533,0.00562206831 L0.455387533,20.0426735 L13.5477791,20.0426735 C13.661626,20.0426735 13.8893198,20.0426735 13.8893198,20.0426735 C14.3447073,20.1565204 14.6862479,20.3842142 14.6862479,20.8396017 C14.6862479,20.9534486 14.6862479,21.0672955 14.6862479,21.1811424 C14.6862479,25.1657833 12.7508509,33.0212182 1.48000948,38.0304811 L0.455387533,38.4858686 L0.455387533,39.6243375 Z" id="Path"></path>
                        <g id="Group" transform="translate(0.000000, 50.781332)">
                            <polygon id="Path" points="0.455387533 0.113846883 4.89541598 0.113846883 4.89541598 0.796928183 1.3661626 0.796928183 1.3661626 2.84617208 4.66772222 2.84617208 4.66772222 3.52925338 1.3661626 3.52925338 1.3661626 5.69234417 4.89541598 5.69234417 4.89541598 6.37542547 0.455387533 6.37542547"></polygon>
                            <polygon id="Path" points="7.5138943 0.796928183 5.4646504 0.796928183 5.4646504 0.113846883 10.5877601 0.113846883 10.5877601 0.796928183 8.42466936 0.796928183 8.42466936 6.48927235 7.5138943 6.48927235"></polygon>
                            <path d="M12.2954634,0.113846883 L13.2062385,0.113846883 L15.7108699,6.48927235 L14.8000948,6.48927235 L14.1170135,4.55387533 L11.3846883,4.55387533 L10.701607,6.48927235 L9.79083196,6.48927235 L12.2954634,0.113846883 Z M11.6123821,3.87079403 L13.7754729,3.87079403 L12.7508509,0.910775066 L12.7508509,0.910775066 L11.6123821,3.87079403 Z" id="Shape"></path>
                            <polygon id="Path" points="17.1908794 0.796928183 15.0277886 0.796928183 15.0277886 0.113846883 20.1508983 0.113846883 20.1508983 0.796928183 17.9878076 0.796928183 17.9878076 6.48927235 17.1908794 6.48927235"></polygon>
                            <path d="M23.6801517,0.113846883 L25.8432425,0.113846883 C27.7786395,0.113846883 28.9171084,1.13846883 28.9171084,3.18771273 C28.9171084,5.35080352 28.0063333,6.48927235 25.8432425,6.48927235 L23.6801517,6.48927235 L23.6801517,0.113846883 Z M24.4770799,5.80619105 L25.8432425,5.80619105 C26.4124769,5.80619105 28.0063333,5.69234417 28.0063333,3.30155962 C28.0063333,1.82155013 27.4370989,0.910775066 25.8432425,0.910775066 L24.363233,0.910775066 L24.363233,5.80619105 L24.4770799,5.80619105 Z" id="Shape"></path>
                            <polygon id="Path" points="30.0555772 0.113846883 34.4956056 0.113846883 34.4956056 0.796928183 30.9663523 0.796928183 30.9663523 2.84617208 34.2679119 2.84617208 34.2679119 3.52925338 30.9663523 3.52925338 30.9663523 5.69234417 34.4956056 5.69234417 34.4956056 6.37542547 30.0555772 6.37542547 30.0555772 0.113846883"></polygon>
                            <polygon id="Path" points="38.3663997 0.113846883 42.5787344 0.113846883 42.5787344 0.796928183 39.2771747 0.796928183 39.2771747 2.84617208 42.2371937 2.84617208 42.2371937 3.52925338 39.2771747 3.52925338 39.2771747 6.48927235 38.4802466 6.48927235 38.4802466 0.113846883"></polygon>
                            <path d="M43.6033563,0.113846883 L46.5633753,0.113846883 C47.7018441,0.113846883 48.4987723,0.796928183 48.4987723,1.82155013 C48.4987723,2.61847832 48.1572316,3.18771273 47.3603035,3.4154065 L47.3603035,3.4154065 C48.1572316,3.52925338 48.2710785,4.0984878 48.2710785,4.7815691 C48.2710785,5.35080352 48.2710785,6.1477317 48.6126192,6.48927235 L47.7018441,6.48927235 C47.4741503,6.26157858 47.5879972,5.57849728 47.4741503,4.89541598 C47.3603035,4.32618157 47.2464566,3.75694715 46.4495284,3.75694715 L44.5141314,3.75694715 L44.5141314,6.48927235 L43.7172032,6.48927235 L43.7172032,0.113846883 L43.6033563,0.113846883 Z M46.2218346,3.07386585 C47.0187628,3.07386585 47.7018441,2.84617208 47.7018441,1.93539702 C47.7018441,1.3661626 47.3603035,0.796928183 46.5633753,0.796928183 L44.5141314,0.796928183 L44.5141314,2.96001897 L46.2218346,2.96001897 L46.2218346,3.07386585 Z" id="Shape"></path>
                            <polygon id="Path" points="49.9787818 0.113846883 50.77571 0.113846883 50.77571 6.48927235 49.9787818 6.48927235"></polygon>
                            <path d="M52.3695663,0.113846883 L54.646504,0.113846883 C55.2157384,0.113846883 55.8988197,0.113846883 56.3542072,0.34154065 C56.8095948,0.569234417 57.1511354,1.02462195 57.1511354,1.70770325 C57.1511354,2.39078455 56.8095948,2.84617208 56.2403604,3.18771273 L56.2403604,3.18771273 C57.0372885,3.30155962 57.4926761,3.98464092 57.4926761,4.66772222 C57.4926761,5.57849728 56.8095948,6.48927235 55.5572791,6.48927235 L52.4834132,6.48927235 L52.4834132,0.113846883 L52.3695663,0.113846883 Z M53.2803414,2.84617208 L54.9880446,2.84617208 C55.8988197,2.84617208 56.3542072,2.50463143 56.3542072,1.82155013 C56.3542072,0.910775066 55.7849728,0.796928183 54.9880446,0.796928183 L53.2803414,0.796928183 L53.2803414,2.84617208 Z M53.2803414,5.80619105 L55.4434322,5.80619105 C56.1265135,5.80619105 56.581901,5.35080352 56.581901,4.66772222 C56.581901,3.87079403 55.8988197,3.64310027 55.2157384,3.64310027 L53.2803414,3.64310027 L53.2803414,5.80619105 L53.2803414,5.80619105 Z" id="Shape"></path>
                            <path d="M61.3634701,7.10542736e-15 C63.412714,7.10542736e-15 64.437336,1.59385637 64.437336,3.30155962 C64.437336,5.00926287 63.412714,6.60311923 61.3634701,6.60311923 C59.3142262,6.60311923 58.2896043,5.00926287 58.2896043,3.30155962 C58.2896043,1.59385637 59.3142262,7.10542736e-15 61.3634701,7.10542736e-15 Z M61.3634701,5.92003793 C62.9573265,5.92003793 63.5265609,4.55387533 63.5265609,3.30155962 C63.5265609,2.0492439 62.8434796,0.6830813 61.3634701,0.6830813 C59.7696137,0.6830813 59.2003793,2.0492439 59.2003793,3.30155962 C59.2003793,4.55387533 59.7696137,5.92003793 61.3634701,5.92003793 Z" id="Shape"></path>
                            <path d="M70.6989145,4.21233468 C70.6989145,5.80619105 69.7881395,6.71696612 68.1942831,6.71696612 C66.6004267,6.71696612 65.5758048,5.92003793 65.5758048,4.21233468 L65.5758048,0.113846883 L66.372733,0.113846883 L66.372733,4.21233468 C66.372733,5.35080352 67.0558143,5.92003793 68.0804362,5.92003793 C69.1050582,5.92003793 69.7881395,5.35080352 69.7881395,4.21233468 L69.7881395,0.113846883 L70.6989145,0.113846883 L70.6989145,4.21233468 Z" id="Path"></path>
                            <path d="M72.178924,0.113846883 L75.2527899,0.113846883 C76.3912587,0.113846883 77.1881869,0.796928183 77.1881869,1.82155013 C77.1881869,2.61847832 76.8466462,3.18771273 76.049718,3.4154065 L76.049718,3.4154065 C76.8466462,3.52925338 76.9604931,4.0984878 76.9604931,4.7815691 C76.9604931,5.35080352 76.9604931,6.1477317 77.3020338,6.48927235 L76.3912587,6.48927235 C76.1635649,6.26157858 76.2774118,5.57849728 76.1635649,4.89541598 C76.049718,4.32618157 75.9358712,3.75694715 75.138943,3.75694715 L73.0896991,3.75694715 L73.0896991,6.48927235 L72.2927709,6.48927235 L72.2927709,0.113846883 L72.178924,0.113846883 Z M74.7974023,3.07386585 C75.5943305,3.07386585 76.2774118,2.84617208 76.2774118,1.93539702 C76.2774118,1.3661626 75.9358712,0.796928183 75.138943,0.796928183 L73.0896991,0.796928183 L73.0896991,2.96001897 L74.7974023,2.96001897 L74.7974023,3.07386585 Z" id="Shape"></path>
                            <path d="M83.2220717,5.69234417 C82.7666842,6.37542547 81.969756,6.60311923 81.1728278,6.60311923 C79.2374308,6.60311923 78.0989619,5.00926287 78.0989619,3.4154065 C78.0989619,1.59385637 79.1235839,7.10542736e-15 81.1728278,7.10542736e-15 C82.5389904,7.10542736e-15 83.6774592,0.569234417 83.905153,2.16309078 L83.1082248,2.16309078 C82.9943779,1.25231572 82.1974497,0.796928183 81.1728278,0.796928183 C79.5789714,0.796928183 79.009737,2.16309078 79.009737,3.52925338 C79.009737,4.89541598 79.8066652,6.03388482 81.1728278,6.03388482 C82.5389904,6.03388482 83.2220717,5.12310975 83.2220717,3.98464092 L81.1728278,3.98464092 L81.1728278,3.30155962 L83.905153,3.30155962 L83.905153,6.60311923 L83.3359186,6.60311923 L83.2220717,5.69234417 Z" id="Path"></path>
                            <path d="M4.0984878,14.6862479 C3.98464092,13.7754729 3.4154065,13.4339322 2.50463143,13.4339322 C1.82155013,13.4339322 1.02462195,13.661626 1.02462195,14.5724011 C1.02462195,15.3693292 2.0492439,15.4831761 3.07386585,15.7108699 C4.0984878,15.9385637 5.12310975,16.2801043 5.12310975,17.53242 C5.12310975,18.8985826 3.75694715,19.467817 2.61847832,19.467817 C1.13846883,19.467817 0,18.7847357 0,17.1908794 L0.796928183,17.1908794 C0.796928183,18.2155013 1.70770325,18.6708889 2.61847832,18.6708889 C3.4154065,18.6708889 4.21233468,18.4431951 4.21233468,17.53242 C4.21233468,16.621645 3.18771273,16.5077981 2.16309078,16.2801043 C1.13846883,16.0524105 0.113846883,15.7108699 0.113846883,14.5724011 C0.113846883,13.3200853 1.25231572,12.7508509 2.39078455,12.7508509 C3.64310027,12.7508509 4.66772222,13.3200853 4.7815691,14.8000948 L4.0984878,14.8000948 L4.0984878,14.6862479 Z" id="Path"></path>
                            <polygon id="Path" points="7.5138943 13.5477791 5.35080352 13.5477791 5.35080352 12.8646978 10.4739133 12.8646978 10.4739133 13.5477791 8.31082248 13.5477791 8.31082248 19.2401233 7.5138943 19.2401233"></polygon>
                            <path d="M12.2954634,12.8646978 L13.2062385,12.8646978 L15.7108699,19.2401233 L14.8000948,19.2401233 L14.1170135,17.3047263 L11.3846883,17.3047263 L10.701607,19.2401233 L9.79083196,19.2401233 L12.2954634,12.8646978 Z M11.6123821,16.621645 L13.7754729,16.621645 L12.7508509,13.661626 L12.7508509,13.661626 L11.6123821,16.621645 Z" id="Shape"></path>
                            <path d="M18.2155013,12.8646978 L19.1262764,12.8646978 L21.6309078,19.2401233 L20.7201328,19.2401233 L20.0370515,17.3047263 L17.3047263,17.3047263 L16.621645,19.2401233 L15.7108699,19.2401233 L18.2155013,12.8646978 Z M17.53242,16.621645 L19.6955108,16.621645 L18.6708889,13.661626 L18.6708889,13.661626 L17.53242,16.621645 Z" id="Shape"></path>
                            <polygon id="Path" points="23.1109173 13.5477791 20.9478265 13.5477791 20.9478265 12.8646978 26.0709363 12.8646978 26.0709363 13.5477791 23.9078455 13.5477791 23.9078455 19.2401233 23.1109173 19.2401233 23.1109173 13.5477791"></polygon>
                            <polygon id="Path" points="29.6001897 12.8646978 33.8125243 12.8646978 33.8125243 13.5477791 30.5109647 13.5477791 30.5109647 15.597023 33.4709837 15.597023 33.4709837 16.2801043 30.5109647 16.2801043 30.5109647 19.2401233 29.7140365 19.2401233 29.7140365 12.8646978"></polygon>
                            <path d="M34.8371463,12.8646978 L37.7971653,12.8646978 C38.9356341,12.8646978 39.7325623,13.5477791 39.7325623,14.5724011 C39.7325623,15.3693292 39.3910216,15.9385637 38.5940934,16.1662574 L38.5940934,16.1662574 C39.2771747,16.2801043 39.5048685,16.8493387 39.5048685,17.53242 C39.5048685,18.1016544 39.5048685,18.8985826 39.8464092,19.2401233 L38.9356341,19.2401233 C38.7079403,19.0124295 38.8217872,18.3293482 38.7079403,17.6462669 C38.5940934,17.0770325 38.4802466,16.5077981 37.6833184,16.5077981 L35.6340745,16.5077981 L35.6340745,19.2401233 L34.8371463,19.2401233 L34.8371463,12.8646978 Z M37.4556246,15.8247168 C38.2525528,15.8247168 38.9356341,15.597023 38.9356341,14.6862479 C38.9356341,14.1170135 38.5940934,13.5477791 37.7971653,13.5477791 L35.7479214,13.5477791 L35.7479214,15.7108699 L37.4556246,15.7108699 L37.4556246,15.8247168 Z" id="Shape"></path>
                            <polygon id="Path" points="41.0987249 12.8646978 45.5387533 12.8646978 45.5387533 13.5477791 42.0094999 13.5477791 42.0094999 15.597023 45.3110596 15.597023 45.3110596 16.2801043 42.0094999 16.2801043 42.0094999 18.4431951 45.5387533 18.4431951 45.5387533 19.1262764 41.0987249 19.1262764"></polygon>
                            <polygon id="Path" points="46.791069 12.8646978 47.5879972 12.8646978 47.5879972 19.2401233 46.791069 19.2401233"></polygon>
                            <path d="M49.1818536,12.8646978 L51.4587913,12.8646978 C52.0280257,12.8646978 52.711107,12.8646978 53.1664945,13.0923916 C53.621882,13.3200853 53.9634227,13.7754729 53.9634227,14.4585542 C53.9634227,15.1416355 53.621882,15.597023 53.0526476,15.9385637 L53.0526476,15.9385637 C53.8495758,16.0524105 54.3049633,16.7354918 54.3049633,17.4185731 C54.3049633,18.3293482 53.621882,19.2401233 52.3695663,19.2401233 L49.2957005,19.2401233 L49.2957005,12.8646978 L49.1818536,12.8646978 Z M50.0926287,15.597023 L51.8003319,15.597023 C52.711107,15.597023 53.1664945,15.2554824 53.1664945,14.5724011 C53.1664945,13.661626 52.5972601,13.5477791 51.8003319,13.5477791 L50.0926287,13.5477791 L50.0926287,15.597023 Z M50.0926287,18.557042 L52.2557194,18.557042 C52.9388007,18.557042 53.3941883,18.1016544 53.3941883,17.4185731 C53.3941883,16.621645 52.711107,16.3939512 52.0280257,16.3939512 L50.0926287,16.3939512 L50.0926287,18.557042 L50.0926287,18.557042 Z" id="Shape"></path>
                            <path d="M60.5665419,16.9631856 C60.5665419,18.557042 59.6557669,19.467817 58.0619105,19.467817 C56.4680541,19.467817 55.4434322,18.6708889 55.4434322,16.9631856 L55.4434322,12.8646978 L56.2403604,12.8646978 L56.2403604,16.9631856 C56.2403604,18.1016544 56.9234417,18.6708889 57.9480636,18.6708889 C58.9726856,18.6708889 59.6557669,18.1016544 59.6557669,16.9631856 L59.6557669,12.8646978 L60.452695,12.8646978 L60.452695,16.9631856 L60.5665419,16.9631856 Z" id="Path"></path>
                            <path d="M62.0465514,12.8646978 L65.0065704,12.8646978 C66.1450392,12.8646978 66.9419674,13.5477791 66.9419674,14.5724011 C66.9419674,15.3693292 66.6004267,15.9385637 65.8034986,16.1662574 L65.8034986,16.1662574 C66.4865799,16.2801043 66.7142736,16.8493387 66.7142736,17.53242 C66.7142736,18.1016544 66.7142736,18.8985826 67.0558143,19.2401233 L66.1450392,19.2401233 C65.9173454,19.0124295 66.0311923,18.3293482 65.9173454,17.6462669 C65.8034986,17.0770325 65.6896517,16.5077981 64.8927235,16.5077981 L62.8434796,16.5077981 L62.8434796,19.2401233 L62.0465514,19.2401233 L62.0465514,12.8646978 Z M64.6650297,15.8247168 C65.4619579,15.8247168 66.1450392,15.597023 66.1450392,14.6862479 C66.1450392,14.1170135 65.8034986,13.5477791 65.0065704,13.5477791 L62.9573265,13.5477791 L62.9573265,15.7108699 L64.6650297,15.7108699 L64.6650297,15.8247168 Z" id="Shape"></path>
                            <path d="M73.0896991,18.4431951 C72.6343116,19.1262764 71.8373834,19.3539702 71.0404552,19.3539702 C69.1050582,19.3539702 67.9665893,17.7601138 67.9665893,16.1662574 C67.9665893,14.3447073 68.9912113,12.7508509 71.0404552,12.7508509 C72.4066178,12.7508509 73.5450866,13.3200853 73.7727804,14.9139417 L72.9758522,14.9139417 C72.8620053,14.0031666 72.0650771,13.5477791 71.0404552,13.5477791 C69.4465988,13.5477791 68.8773644,14.9139417 68.8773644,16.2801043 C68.8773644,17.6462669 69.6742926,18.7847357 71.0404552,18.7847357 C72.4066178,18.7847357 73.0896991,17.8739607 73.0896991,16.7354918 L71.0404552,16.7354918 L71.0404552,16.0524105 L73.7727804,16.0524105 L73.7727804,19.3539702 L73.203546,19.3539702 L73.0896991,18.4431951 Z" id="Path"></path>
                            <polygon id="Path" points="4.44002845 31.9909742 3.87079403 31.9909742 2.84617208 28.3478739 2.84617208 28.3478739 1.82155013 31.9909742 1.25231572 31.9909742 0.113846883 27.6647926 0.6830813 27.6647926 1.59385637 31.194046 1.59385637 31.194046 2.61847832 27.5509458 3.30155962 27.5509458 4.0984878 31.194046 4.0984878 31.194046 5.00926287 27.5509458 5.57849728 27.5509458"></polygon>
                            <polygon id="Path" points="10.2462195 31.9909742 9.67698508 31.9909742 8.65236313 28.3478739 8.65236313 28.3478739 7.62774118 31.9909742 7.05850677 31.9909742 5.92003793 27.6647926 6.48927235 27.6647926 7.40004742 31.194046 7.40004742 31.194046 8.42466936 27.5509458 9.10775066 27.5509458 9.90467885 31.194046 9.90467885 31.194046 10.8154539 27.5509458 11.3846883 27.5509458"></polygon>
                            <polygon id="Path" points="16.0524105 31.9909742 15.4831761 31.9909742 14.4585542 28.3478739 14.4585542 28.3478739 13.4339322 31.9909742 12.8646978 31.9909742 11.726229 27.6647926 12.2954634 27.6647926 13.2062385 31.3078929 13.2062385 31.3078929 14.2308604 27.6647926 14.9139417 27.6647926 15.8247168 31.3078929 15.8247168 31.3078929 16.7354918 27.6647926 17.1908794 27.6647926"></polygon>
                            <polygon id="Path" points="17.4185731 31.3078929 18.1016544 31.3078929 18.1016544 31.9909742 17.4185731 31.9909742"></polygon>
                            <polygon id="Path" points="19.2401233 27.5509458 22.0862954 27.5509458 22.0862954 28.0063333 19.8093577 28.0063333 19.8093577 29.3724959 21.8586016 29.3724959 21.8586016 29.8278834 19.8093577 29.8278834 19.8093577 31.8771273 19.2401233 31.8771273"></polygon>
                            <path d="M22.8832235,27.5509458 L24.9324674,27.5509458 C25.7293956,27.5509458 26.29863,28.0063333 26.29863,28.6894146 C26.29863,29.258649 26.0709363,29.6001897 25.5017019,29.8278834 L25.5017019,29.8278834 C25.9570894,29.9417303 26.0709363,30.283271 26.1847832,30.7386585 C26.1847832,31.194046 26.1847832,31.6494336 26.4124769,31.9909742 L25.7293956,31.9909742 C25.6155487,31.7632804 25.6155487,31.3078929 25.6155487,30.9663523 C25.5017019,30.5109647 25.5017019,30.1694241 24.9324674,30.1694241 L23.5663048,30.1694241 L23.5663048,31.9909742 L22.8832235,31.9909742 L22.8832235,27.5509458 Z M24.7047737,29.6001897 C25.2740081,29.6001897 25.7293956,29.4863428 25.7293956,28.8032615 C25.7293956,28.3478739 25.5017019,28.0063333 24.9324674,28.0063333 L23.452458,28.0063333 L23.452458,29.4863428 L24.7047737,29.4863428 L24.7047737,29.6001897 Z" id="Shape"></path>
                            <polygon id="Path" points="27.2094051 31.3078929 27.8924864 31.3078929 27.8924864 31.9909742 27.2094051 31.9909742"></polygon>
                            <path d="M32.1048211,28.9171084 C31.9909742,28.3478739 31.5355867,28.0063333 30.8525054,28.0063333 C29.8278834,28.0063333 29.3724959,28.9171084 29.3724959,29.8278834 C29.3724959,30.8525054 29.8278834,31.6494336 30.8525054,31.6494336 C31.6494336,31.6494336 32.1048211,31.0801991 32.1048211,30.3971178 L32.6740555,30.3971178 C32.5602086,31.5355867 31.8771273,32.1048211 30.7386585,32.1048211 C29.3724959,32.1048211 28.6894146,31.0801991 28.6894146,29.8278834 C28.6894146,28.5755677 29.3724959,27.5509458 30.7386585,27.5509458 C31.6494336,27.5509458 32.4463617,28.0063333 32.5602086,28.9171084 L32.1048211,28.9171084 Z" id="Path"></path>
                            <polygon id="Path" points="33.5848306 27.5509458 34.154065 27.5509458 34.154065 29.3724959 36.4310027 29.3724959 36.4310027 27.5509458 37.0002371 27.5509458 37.0002371 31.8771273 36.4310027 31.8771273 36.4310027 29.8278834 34.154065 29.8278834 34.154065 31.8771273 33.5848306 31.8771273"></polygon>
                        </g>
                    </g>
                </g>
            </g>
        </g>
    </g>
</svg>