<?xml version="1.0" encoding="utf-8"?>
<!-- Generator: Adobe Illustrator 27.6.1, SVG Export Plug-In . SVG Version: 6.00 Build 0)  -->
<svg version="1.1" id="Calque_1" xmlns="http://www.w3.org/2000/svg" xmlns:xlink="http://www.w3.org/1999/xlink" x="0px" y="0px"
	 viewBox="0 0 159.9 34" style="enable-background:new 0 0 159.9 34;" xml:space="preserve">
<style type="text/css">
	.st0{fill:#A2FF01;}
</style>
<g id="Page-1">
	<g id="page-d_x27_acceuil-_x28_1440px_x29_--copy" transform="translate(-165.000000, -24.500000)">
		<g id="eikonica" transform="translate(165.000000, 24.500000)">
			<path id="Shape" class="st0" d="M20.7,16.6V22c0,1-0.8,1.8-1.8,1.8h-13c-1,0-1.8,0.8-1.8,1.8V27c0,0.5,0.2,0.9,0.5,1.3l1.6,1.6
				c0.3,0.3,0.8,0.5,1.3,0.5H14c0.5,0,0.9-0.2,1.3-0.5l1.4-1.4c0.7-0.7,1.9-0.7,2.6,0l0,0c0.7,0.7,0.7,1.9,0,2.6L17,33.4
				c-0.3,0.3-0.8,0.5-1.3,0.5H5.6c-0.5,0-0.9-0.2-1.3-0.5l-3.8-3.8C0.2,29.3,0,28.8,0,28.3V16.6c0-0.5,0.2-0.9,0.5-1.3l3.8-3.8
				c0.3-0.3,0.8-0.5,1.3-0.5H15c0.5,0,0.9,0.2,1.3,0.5l3.8,3.8C20.4,15.6,20.7,16.1,20.7,16.6z M16.7,18.6v-0.7
				c0-0.5-0.2-0.9-0.5-1.3L14.5,15c-0.3-0.3-0.8-0.5-1.3-0.5H7.4c-0.5,0-0.9,0.2-1.3,0.5l-1.6,1.6C4.2,16.9,4,17.4,4,17.9v0.7
				c0,1,0.8,1.8,1.8,1.8h9.1C15.9,20.4,16.7,19.6,16.7,18.6z"/>
			<path id="Shape_00000027597902144245577040000017613272799347437721_" class="st0" d="M27.4,0.4L27.4,0.4c1.1,0,2,0.9,2,2v1.2
				c0,1.1-0.9,2-2,2l0,0c-1.1,0-2-0.9-2-2V2.3C25.4,1.3,26.3,0.4,27.4,0.4z M27.4,10.9L27.4,10.9c1.1,0,2,0.9,2,2v19
				c0,1.1-0.9,2-2,2l0,0c-1.1,0-2-0.9-2-2v-19C25.4,11.8,26.3,10.9,27.4,10.9z"/>
			<path id="Path" class="st0" d="M49.6,33.4L42.4,26c-1.1-1.2-3.1-0.3-3.1,1.3v4.9c0,1-0.8,1.8-1.8,1.8h-0.4c-1,0-1.8-0.8-1.8-1.8
				V1.8c0-1,0.8-1.8,1.8-1.8h0.4c1,0,1.8,0.8,1.8,1.8v15.4c0,1.6,2,2.4,3.1,1.3l6.9-7c0.3-0.3,0.8-0.6,1.3-0.6l0,0
				c1.6,0,2.4,1.9,1.3,3L45,20.9c-0.7,0.7-0.7,1.8,0,2.5l7.4,7.5c1.1,1.1,0.3,3-1.3,3h-0.3C50.4,34,49.9,33.8,49.6,33.4z"/>
			<path id="Shape_00000029762767379768863640000013580549835700713146_" class="st0" d="M77.7,17.7v9.5c0,1.2-0.5,2.3-1.3,3.2
				l-2.2,2.2c-0.8,0.8-2,1.3-3.2,1.3h-7.2c-1.2,0-2.3-0.5-3.2-1.3l-2.2-2.2c-0.8-0.8-1.3-2-1.3-3.2v-9.5c0-1.2,0.5-2.3,1.3-3.2
				l2.2-2.2c0.8-0.8,2-1.3,3.2-1.3H71c1.2,0,2.3,0.5,3.2,1.3l2.2,2.2C77.2,15.3,77.7,16.5,77.7,17.7z M73.8,25.9V19
				c0-1.2-0.5-2.3-1.3-3.2l0,0c-0.9-0.8-2-1.3-3.2-1.3h-3.7c-1.2,0-2.3,0.5-3.2,1.3l0,0c-0.8,0.8-1.3,2-1.3,3.2v6.9
				c0,1.2,0.5,2.3,1.3,3.2l0,0c0.8,0.8,2,1.3,3.2,1.3h3.7c1.2,0,2.3-0.5,3.2-1.3l0,0C73.3,28.2,73.8,27.1,73.8,25.9z"/>
			<path id="Path_00000124856556213565603250000012344237198243438998_" class="st0" d="M102.7,15.6v17c0,0.7-0.6,1.4-1.4,1.4H100
				c-0.7,0-1.4-0.6-1.4-1.4V17.1c0-0.4-0.1-0.7-0.4-1L97,14.9c-0.2-0.2-0.6-0.4-1-0.4h-4.4c-0.4,0-0.7,0.1-1,0.4l-3.6,3.6
				c-0.2,0.2-0.4,0.6-0.4,1v13.2c0,0.7-0.6,1.4-1.4,1.4H84c-0.7,0-1.4-0.6-1.4-1.4V12.3c0-0.7,0.6-1.4,1.4-1.4H85
				c0.7,0,1.3,0.6,1.4,1.3l0,0c0,1.2,1.5,1.7,2.3,0.9l1.8-1.8c0.2-0.2,0.6-0.4,1-0.4H98c0.4,0,0.7,0.1,1,0.4l3.3,3.3
				C102.5,14.9,102.7,15.2,102.7,15.6z"/>
			<path id="Shape_00000055694200026146001860000015762467395016057985_" class="st0" d="M110.2,0.4L110.2,0.4c1.1,0,2,0.9,2,2v1.2
				c0,1.1-0.9,2-2,2l0,0c-1.1,0-2-0.9-2-2V2.3C108.3,1.3,109.2,0.4,110.2,0.4z M110.2,10.9L110.2,10.9c1.1,0,2,0.9,2,2v19
				c0,1.1-0.9,2-2,2l0,0c-1.1,0-2-0.9-2-2v-19C108.3,11.8,109.2,10.9,110.2,10.9z"/>
			<path id="Path_00000029039066565120696400000016996488583982754696_" class="st0" d="M135.9,31.1l-2.3,2.3
				c-0.3,0.3-0.8,0.5-1.3,0.5h-9.4c-0.5,0-0.9-0.2-1.3-0.5l-3.8-3.8c-0.3-0.3-0.5-0.8-0.5-1.3V16.6c0-0.5,0.2-0.9,0.5-1.3l3.8-3.8
				c0.3-0.3,0.8-0.5,1.3-0.5h9.1c0.5,0,0.9,0.2,1.3,0.5l2.3,2.3c0.7,0.7,0.7,1.9,0,2.6l0,0c-0.7,0.7-1.9,0.7-2.6,0l-1.4-1.4
				c-0.3-0.3-0.8-0.5-1.3-0.5h-5.8c-0.5,0-0.9,0.2-1.3,0.5l-1.5,1.5c-0.3,0.3-0.5,0.8-0.5,1.3V27c0,0.5,0.2,0.9,0.5,1.3l1.5,1.5
				c0.3,0.3,0.8,0.5,1.3,0.5h6c0.5,0,0.9-0.2,1.3-0.5l1.4-1.4c0.7-0.7,1.9-0.7,2.6,0l0,0C136.6,29.2,136.6,30.4,135.9,31.1z"/>
			<path id="Shape_00000095318712645096373630000003606692802437056424_" class="st0" d="M159.9,15.6v17c0,0.7-0.6,1.4-1.4,1.4h-0.9
				c-0.7,0-1.3-0.6-1.4-1.3l0,0c0-1.2-1.5-1.7-2.3-0.9l-1.8,1.8c-0.2,0.2-0.6,0.4-1,0.4h-7.3c-0.4,0-0.7-0.1-1-0.4l-3.1-3.1
				c-0.2-0.2-0.4-0.6-0.4-1v-4.3c0-0.4,0.1-0.7,0.4-1l2.7-2.7c0.2-0.2,0.6-0.4,0.9-0.4l11.4-0.8c0.7,0,1.3-0.7,1.3-1.4v-2
				c0-0.4-0.1-0.7-0.4-1l-1.3-1.3c-0.2-0.2-0.6-0.4-1-0.4H146c-0.4,0-0.7,0.1-1,0.4l-1.7,1.7c-0.5,0.5-1.4,0.5-1.9,0l-0.7-0.7
				c-0.5-0.5-0.5-1.4,0-1.9l2.6-2.6c0.2-0.2,0.6-0.4,1-0.4h10.8c0.4,0,0.7,0.1,1,0.4l3.3,3.3C159.7,14.9,159.9,15.2,159.9,15.6z
				 M155.9,25.4v-0.2c0-0.8-0.7-1.4-1.4-1.4l-9.3,0.7c-0.3,0-0.7,0.1-0.8,0.4l-0.6,0.6c-0.2,0.2-0.4,0.6-0.4,1v1.6
				c0,0.4,0.1,0.7,0.4,1l0.9,0.9c0.2,0.2,0.6,0.4,1,0.4h5.3c0.4,0,0.7-0.1,1-0.4l3.6-3.6C155.7,26.2,155.9,25.8,155.9,25.4z"/>
		</g>
	</g>
</g>
</svg>
