<?xml version="1.0" encoding="UTF-8"?>
<svg width="123.247085px" height="45.5387533px" viewBox="0 0 123.247085 45.5387533" version="1.1" xmlns="http://www.w3.org/2000/svg" xmlns:xlink="http://www.w3.org/1999/xlink">
    <title>eikon_simple</title>
    <defs>
        <polygon id="path-1" points="0 0 24.4405236 0 24.4405236 27.8872641 0 27.8872641"></polygon>
        <polygon id="path-3" points="0 45.5387533 123.247085 45.5387533 123.247085 0 0 0"></polygon>
        <polygon id="path-5" points="0 45.5387533 123.247085 45.5387533 123.247085 0 0 0"></polygon>
        <polygon id="path-7" points="0 45.5387533 123.247085 45.5387533 123.247085 0 0 0"></polygon>
        <polygon id="path-9" points="0 45.5387533 123.247085 45.5387533 123.247085 0 0 0"></polygon>
        <polygon id="path-11" points="0 45.5387533 123.247085 45.5387533 123.247085 0 0 0"></polygon>
        <polygon id="path-13" points="0 45.5387533 123.247085 45.5387533 123.247085 0 0 0"></polygon>
    </defs>
    <g id="Page-1" stroke="none" stroke-width="1" fill="none" fill-rule="evenodd">
        <g id="page-d'acceuil-(1440px)--copy" transform="translate(-338.531970, -9252.812098)">
            <g id="6-footer-" transform="translate(-1.609827, 9009.000000)">
                <g id="eikon_simple" transform="translate(340.141796, 243.812098)">
                    <g id="Fill-1-Clipped" transform="translate(0.000000, 11.818213)">
                        <mask id="mask-2" fill="white">
                            <use xlink:href="#path-1"></use>
                        </mask>
                        <g id="path-1_00000042001445507911045480000000188827111244874632_"></g>
                        <path d="M18.6959561,11.175795 C18.6959561,7.5201611 16.1892357,5.11788741 12.5336018,5.11788741 C8.98241465,5.11788741 6.26680092,7.20682105 6.26680092,11.175795 L18.6959561,11.175795 Z M12.6380485,0 C19.3226362,0 24.5449703,5.2223341 24.5449703,11.9069217 C24.5449703,12.8469419 24.5449703,13.9958554 24.2316302,15.771449 L6.05790755,15.771449 C6.05790755,19.5315295 7.93794783,22.66493 12.7424952,22.66493 C16.1892357,22.66493 17.4425959,21.0982298 18.1737227,19.2181895 L24.2316302,19.2181895 C23.3960568,23.8138435 19.3226362,27.8872641 12.7424952,27.8872641 C4.17786728,27.8872641 0,21.0982298 0,13.8914087 C0,5.95346087 4.59565401,0 12.6380485,0 L12.6380485,0 Z" id="Fill-1" fill="#A2FF00" mask="url(#mask-2)"></path>
                    </g>
                    <g id="Fill-4-Clipped">
                        <mask id="mask-4" fill="white">
                            <use xlink:href="#path-3"></use>
                        </mask>
                        <g id="path-3_00000150085872863131780960000007474121170675010490_"></g>
                        <path d="M30.6028778,38.8541657 L36.9741254,38.8541657 L36.9741254,13.0558352 L30.6028778,13.0558352 L30.6028778,38.8541657 L30.6028778,38.8541657 Z M33.7362783,0 C36.1385519,0 38.0185922,1.77559359 38.0185922,4.0734206 C38.0185922,6.26680092 36.1385519,8.04239451 33.7362783,8.04239451 C31.4384513,8.04239451 29.558411,6.26680092 29.558411,4.0734206 C29.558411,1.77559359 31.4384513,0 33.7362783,0 L33.7362783,0 Z" id="Fill-4" fill="#A2FF00" mask="url(#mask-4)"></path>
                    </g>
                    <g id="Fill-6-Clipped">
                        <mask id="mask-6" fill="white">
                            <use xlink:href="#path-5"></use>
                        </mask>
                        <g id="path-3_00000013881412803445256650000004712554305429514122_"></g>
                        <polygon id="Fill-6" fill="#A2FF00" mask="url(#mask-6)" points="43.032033 38.8541657 43.032033 0 49.1943872 0 49.1943872 24.4405236 59.0123753 12.9513886 66.6369831 12.9513886 55.6700815 25.9027771 66.6369831 38.8541657 59.0123753 38.8541657 49.1943872 27.4694773 49.1943872 38.8541657"></polygon>
                    </g>
                    <g id="Fill-7-Clipped">
                        <mask id="mask-8" fill="white">
                            <use xlink:href="#path-7"></use>
                        </mask>
                        <g id="path-3_00000062878665275670434170000011894802918630732977_"></g>
                        <path d="M79.2750316,34.154065 C84.079579,34.154065 87.3174261,30.2895378 87.3174261,25.6938838 C87.3174261,21.0982298 84.079579,17.2337025 79.2750316,17.2337025 C74.4704842,17.2337025 71.3370838,21.0982298 71.3370838,25.6938838 C71.3370838,30.2895378 74.4704842,34.154065 79.2750316,34.154065 M79.2750316,11.8024751 C87.9441062,11.8024751 93.6886737,18.1737227 93.6886737,25.6938838 C93.6886737,33.2140449 87.9441062,39.6897391 79.2750316,39.6897391 C70.605957,39.6897391 64.9658362,33.3184915 64.9658362,25.7983304 C64.9658362,18.2781693 70.7104037,11.8024751 79.2750316,11.8024751" id="Fill-7" fill="#A2FF00" mask="url(#mask-8)"></path>
                    </g>
                    <g id="Fill-8-Clipped">
                        <mask id="mask-10" fill="white">
                            <use xlink:href="#path-9"></use>
                        </mask>
                        <g id="path-3_00000146462141249995907690000000775152237751439009_"></g>
                        <path d="M97.0309675,38.8541657 L97.0309675,12.5336018 L103.193322,12.5336018 L103.193322,16.1892357 C104.864469,13.2647286 107.893422,11.8024751 111.862396,11.8024751 C115.726924,11.8024751 118.233644,13.1602819 119.800344,15.3536622 C121.158151,17.3381492 121.471491,19.5315295 121.471491,23.1871634 L121.471491,38.8541657 L115.309137,38.8541657 L115.309137,25.276097 C115.309137,20.7848897 113.95133,17.3381492 109.564569,17.3381492 C105.282255,17.3381492 103.193322,20.7848897 103.193322,25.276097 L103.193322,38.8541657 L97.0309675,38.8541657 Z" id="Fill-8" fill="#A2FF00" mask="url(#mask-10)"></path>
                    </g>
                    <g id="Fill-9-Clipped">
                        <mask id="mask-12" fill="white">
                            <use xlink:href="#path-11"></use>
                        </mask>
                        <g id="path-3_00000179617424586344932120000007865450818516403332_"></g>
                        <polygon id="Fill-9" fill="#A2FF00" mask="url(#mask-12)" points="54.4167213 43.032033 0.835573455 43.032033 0.835573455 45.5387533 55.6700815 45.5387533"></polygon>
                    </g>
                    <g id="Fill-10-Clipped">
                        <mask id="mask-14" fill="white">
                            <use xlink:href="#path-13"></use>
                        </mask>
                        <g id="path-3_00000039814805741734663330000000799068742066793146_"></g>
                        <polygon id="Fill-10" fill="#A2FF00" mask="url(#mask-14)" points="56.6101016 43.032033 57.8634618 45.5387533 123.247085 45.5387533 123.247085 43.032033"></polygon>
                    </g>
                </g>
            </g>
        </g>
    </g>
</svg>