<?xml version="1.0" encoding="UTF-8"?>
<svg width="159.851444px" height="34px" viewBox="0 0 159.851444 34" version="1.1" xmlns="http://www.w3.org/2000/svg" xmlns:xlink="http://www.w3.org/1999/xlink">
    <title>eikonica</title>
    <g id="Page-1" stroke="none" stroke-width="1" fill="none" fill-rule="evenodd">
        <g id="page-d'acceuil-(1440px)--copy" transform="translate(-165.000000, -24.500000)" fill="#FFFFFF" fill-rule="nonzero">
            <g id="eikonica" transform="translate(165.000000, 24.500000)">
                <path d="M20.6712517,16.5557084 L20.6712517,22.0275103 C20.6712517,23.0563961 19.829436,23.8514443 18.8473177,23.8514443 L5.79917469,23.8514443 C4.77028886,23.8514443 3.97524072,24.69326 3.97524072,25.6753783 L3.97524072,26.9848693 C3.97524072,27.4525447 4.16231087,27.9202201 4.48968363,28.2943604 L6.07977992,29.8844567 C6.40715268,30.2118294 6.87482806,30.3988996 7.38927098,30.3988996 L14.0302613,30.3988996 C14.4979367,30.3988996 14.9656121,30.2118294 15.3397524,29.8844567 L16.7427785,28.4814305 C17.4442916,27.7799175 18.6134801,27.7799175 19.3149931,28.4814305 L19.3149931,28.4814305 C20.0165062,29.1829436 20.0165062,30.352132 19.3149931,31.0536451 L16.9766162,33.392022 C16.6492435,33.7193948 16.1815681,33.9064649 15.6671252,33.9064649 L5.61210454,33.9064649 C5.14442916,33.9064649 4.67675378,33.7193948 4.30261348,33.392022 L0.514442916,29.6038514 C0.187070151,29.2764787 2.84217094e-14,28.8088033 2.84217094e-14,28.3411279 L2.84217094e-14,16.5557084 C2.84217094e-14,16.088033 0.187070151,15.6203576 0.514442916,15.2462173 L4.30261348,11.4580468 C4.62998624,11.130674 5.09766162,10.9436039 5.61210454,10.9436039 L15.0123796,10.9436039 C15.480055,10.9436039 15.9477304,11.130674 16.3218707,11.4580468 L20.1100413,15.2462173 C20.437414,15.6203576 20.6712517,16.088033 20.6712517,16.5557084 Z M16.696011,18.5667125 L16.696011,17.8651994 C16.696011,17.3975241 16.5089409,16.9298487 16.1815681,16.5557084 L14.5447043,14.9656121 C14.2173315,14.6382393 13.7496561,14.4511692 13.2352132,14.4511692 L7.38927098,14.4511692 C6.9215956,14.4511692 6.45392022,14.6382393 6.07977992,14.9656121 L4.48968363,16.5557084 C4.16231087,16.8830812 3.97524072,17.3507565 3.97524072,17.8651994 L3.97524072,18.5667125 C3.97524072,19.5955983 4.8170564,20.3906465 5.79917469,20.3906465 L14.872077,20.3906465 C15.8541953,20.437414 16.696011,19.5955983 16.696011,18.5667125 Z" id="Shape"></path>
                <path d="M27.4057772,0.374140303 L27.4057772,0.374140303 C28.4814305,0.374140303 29.3700138,1.26272352 29.3700138,2.33837689 L29.3700138,3.50756534 C29.3700138,4.58321871 28.4814305,5.47180193 27.4057772,5.47180193 L27.4057772,5.47180193 C26.3301238,5.47180193 25.4415406,4.58321871 25.4415406,3.50756534 L25.4415406,2.33837689 C25.394773,1.26272352 26.2833563,0.374140303 27.4057772,0.374140303 Z M27.4057772,10.9436039 L27.4057772,10.9436039 C28.4814305,10.9436039 29.3700138,11.8321871 29.3700138,12.9078404 L29.3700138,31.9422283 C29.3700138,33.0178817 28.4814305,33.9064649 27.4057772,33.9064649 L27.4057772,33.9064649 C26.3301238,33.9064649 25.4415406,33.0178817 25.4415406,31.9422283 L25.4415406,12.9078404 C25.394773,11.8321871 26.2833563,10.9436039 27.4057772,10.9436039 Z" id="Shape"></path>
                <path d="M49.5735901,33.392022 L42.3713893,26.0495186 C41.2489684,24.8803301 39.2847318,25.7221458 39.2847318,27.3122421 L39.2847318,32.176066 C39.2847318,33.1581843 38.4896836,33.9532325 37.5075653,33.9532325 L37.133425,33.9532325 C36.1513067,33.9532325 35.3562586,33.1581843 35.3562586,32.176066 L35.3562586,1.77716644 C35.3562586,0.795048143 36.1513067,3.55271368e-15 37.133425,3.55271368e-15 L37.5075653,3.55271368e-15 C38.4896836,3.55271368e-15 39.2847318,0.795048143 39.2847318,1.77716644 L39.2847318,17.2104539 C39.2847318,18.8005502 41.2489684,19.6423659 42.3713893,18.4731774 L49.2462173,11.4580468 C49.5735901,11.130674 50.0412655,10.8968363 50.5089409,10.8968363 L50.5089409,10.8968363 C52.0990371,10.8968363 52.8940853,12.8143054 51.7716644,13.9367263 L45.0371389,20.8583219 C44.3356259,21.5598349 44.3356259,22.6822558 45.0371389,23.3837689 L52.4731774,30.866575 C53.5955983,31.9889959 52.8005502,33.9064649 51.2104539,33.9064649 L50.8830812,33.9064649 C50.3686382,33.9532325 49.9477304,33.7661623 49.5735901,33.392022 Z" id="Path"></path>
                <path d="M77.6808803,17.6781293 L77.6808803,27.218707 C77.6808803,28.434663 77.213205,29.5570839 76.3713893,30.3988996 L74.173315,32.5969739 C73.3314993,33.4387895 72.1623109,33.9064649 70.9931224,33.9064649 L63.7909216,33.9064649 C62.5749656,33.9064649 61.4525447,33.4387895 60.610729,32.5969739 L58.4126547,30.3988996 C57.5708391,29.5570839 57.1031637,28.3878955 57.1031637,27.218707 L57.1031637,17.6781293 C57.1031637,16.4621733 57.5708391,15.3397524 58.4126547,14.4979367 L60.610729,12.2998624 C61.4525447,11.4580468 62.6217331,10.9903714 63.7909216,10.9903714 L70.9931224,10.9903714 C72.2090784,10.9903714 73.3314993,11.4580468 74.173315,12.2998624 L76.3713893,14.4979367 C77.213205,15.3397524 77.6808803,16.4621733 77.6808803,17.6781293 Z M73.7524072,25.909216 L73.7524072,18.9876204 C73.7524072,17.7716644 73.2847318,16.6492435 72.4429161,15.8074278 L72.4429161,15.8074278 C71.5543329,14.9656121 70.431912,14.4979367 69.215956,14.4979367 L65.5213205,14.4979367 C64.3053645,14.4979367 63.1829436,14.9656121 62.3411279,15.8074278 L62.3411279,15.8074278 C61.4993122,16.6492435 61.0316369,17.8184319 61.0316369,18.9876204 L61.0316369,25.909216 C61.0316369,27.1251719 61.4993122,28.2475928 62.3411279,29.0894085 L62.3411279,29.0894085 C63.1829436,29.9312242 64.352132,30.3988996 65.5213205,30.3988996 L69.215956,30.3988996 C70.431912,30.3988996 71.5543329,29.9312242 72.3961486,29.0894085 L72.3961486,29.0894085 C73.2847318,28.2475928 73.7524072,27.0784044 73.7524072,25.909216 Z" id="Shape"></path>
                <path d="M102.654746,15.5735901 L102.654746,32.5969739 C102.654746,33.3452545 102.046768,33.9532325 101.298487,33.9532325 L100.035763,33.9532325 C99.2874828,33.9532325 98.6795048,33.3452545 98.6795048,32.5969739 L98.6795048,17.0701513 C98.6795048,16.696011 98.5392022,16.3686382 98.258597,16.088033 L97.042641,14.872077 C96.8088033,14.6382393 96.434663,14.4511692 96.0605227,14.4511692 L91.6643741,14.4511692 C91.2902338,14.4511692 90.9628611,14.5914718 90.6822558,14.872077 L87.0811554,18.4731774 C86.8473177,18.7070151 86.6602476,19.0811554 86.6602476,19.4552957 L86.6602476,32.6437414 C86.6602476,33.392022 86.0522696,34 85.303989,34 L84.0412655,34 C83.2929849,34 82.6850069,33.392022 82.6850069,32.6437414 L82.6850069,12.2998624 C82.6850069,11.5515818 83.2929849,10.9436039 84.0412655,10.9436039 L84.9766162,10.9436039 C85.7248968,10.9436039 86.2861073,11.5048143 86.3328748,12.2530949 L86.3328748,12.2530949 C86.3796424,13.4222834 87.829436,13.9834938 88.6712517,13.1416781 L90.4951857,11.3177442 C90.7290234,11.0839065 91.1031637,10.8968363 91.477304,10.8968363 L97.9779917,10.8968363 C98.352132,10.8968363 98.6795048,11.0371389 98.96011,11.3177442 L102.233838,14.5914718 C102.514443,14.872077 102.654746,15.1994498 102.654746,15.5735901 Z" id="Path"></path>
                <path d="M110.231087,0.374140303 L110.231087,0.374140303 C111.30674,0.374140303 112.195323,1.26272352 112.195323,2.33837689 L112.195323,3.50756534 C112.195323,4.58321871 111.30674,5.47180193 110.231087,5.47180193 L110.231087,5.47180193 C109.155433,5.47180193 108.26685,4.58321871 108.26685,3.50756534 L108.26685,2.33837689 C108.26685,1.26272352 109.155433,0.374140303 110.231087,0.374140303 Z M110.231087,10.9436039 L110.231087,10.9436039 C111.30674,10.9436039 112.195323,11.8321871 112.195323,12.9078404 L112.195323,31.9422283 C112.195323,33.0178817 111.30674,33.9064649 110.231087,33.9064649 L110.231087,33.9064649 C109.155433,33.9064649 108.26685,33.0178817 108.26685,31.9422283 L108.26685,12.9078404 C108.26685,11.8321871 109.155433,10.9436039 110.231087,10.9436039 Z" id="Shape"></path>
                <path d="M135.906465,31.1004127 L133.568088,33.4387895 C133.240715,33.7661623 132.77304,33.9532325 132.258597,33.9532325 L122.905089,33.9532325 C122.437414,33.9532325 121.969739,33.7661623 121.595598,33.4387895 L117.807428,29.650619 C117.480055,29.3232462 117.292985,28.8555708 117.292985,28.3411279 L117.292985,16.5557084 C117.292985,16.088033 117.480055,15.6203576 117.807428,15.2462173 L121.595598,11.4580468 C121.922971,11.130674 122.390646,10.9436039 122.905089,10.9436039 L132.024759,10.9436039 C132.492435,10.9436039 132.96011,11.130674 133.33425,11.4580468 L135.672627,13.7964237 C136.37414,14.4979367 136.37414,15.6671252 135.672627,16.3686382 L135.672627,16.3686382 C134.971114,17.0701513 133.801926,17.0701513 133.100413,16.3686382 L131.744154,15.0123796 C131.416781,14.6850069 130.949106,14.4979367 130.434663,14.4979367 L124.682256,14.4979367 C124.21458,14.4979367 123.746905,14.6850069 123.372765,15.0123796 L121.829436,16.5557084 C121.502063,16.8830812 121.314993,17.3507565 121.314993,17.8651994 L121.314993,26.9848693 C121.314993,27.4525447 121.502063,27.9202201 121.829436,28.2943604 L123.372765,29.8376891 C123.700138,30.1650619 124.167813,30.352132 124.682256,30.352132 L130.668501,30.352132 C131.136176,30.352132 131.603851,30.1650619 131.977992,29.8376891 L133.33425,28.4814305 C134.035763,27.7799175 135.204952,27.7799175 135.906465,28.4814305 L135.906465,28.4814305 C136.607978,29.2297111 136.607978,30.3988996 135.906465,31.1004127 Z" id="Path"></path>
                <path d="M159.851444,15.5735901 L159.851444,32.5969739 C159.851444,33.3452545 159.243466,33.9532325 158.495186,33.9532325 L157.559835,33.9532325 C156.811554,33.9532325 156.250344,33.392022 156.203576,32.6437414 L156.203576,32.6437414 C156.156809,31.474553 154.707015,30.9133425 153.865199,31.7551582 L152.041265,33.5790922 C151.807428,33.8129298 151.433287,34 151.059147,34 L143.716644,34 C143.342503,34 143.015131,33.8596974 142.734525,33.5790922 L139.6011,30.4456671 C139.367263,30.2118294 139.180193,29.8376891 139.180193,29.4635488 L139.180193,25.2077029 C139.180193,24.8335626 139.320495,24.5061898 139.6011,24.2255846 L142.26685,21.5598349 C142.500688,21.3259972 142.828061,21.1856946 143.155433,21.1856946 L154.519945,20.3906465 C155.221458,20.343879 155.782669,19.735901 155.782669,19.0343879 L155.782669,17.0233838 C155.782669,16.6492435 155.642366,16.3218707 155.361761,16.0412655 L154.099037,14.778542 C153.865199,14.5447043 153.491059,14.3576341 153.116919,14.3576341 L146.008253,14.3576341 C145.634113,14.3576341 145.30674,14.4979367 145.026135,14.778542 L143.295736,16.5089409 C142.781293,17.0233838 141.89271,17.0233838 141.378267,16.5089409 L140.723521,15.8541953 C140.209078,15.3397524 140.209078,14.4511692 140.723521,13.9367263 L143.342503,11.3177442 C143.576341,11.0839065 143.950481,10.8968363 144.324622,10.8968363 L155.127923,10.8968363 C155.502063,10.8968363 155.829436,11.0371389 156.110041,11.3177442 L159.383769,14.5914718 C159.711142,14.872077 159.851444,15.1994498 159.851444,15.5735901 Z M155.876204,25.4415406 L155.876204,25.2544704 C155.876204,24.4594223 155.221458,23.8514443 154.42641,23.8982118 L145.11967,24.5529574 C144.792297,24.5529574 144.464924,24.69326 144.277854,24.9270977 L143.669876,25.5350757 C143.436039,25.7689133 143.248968,26.1430536 143.248968,26.5171939 L143.248968,28.1072902 C143.248968,28.4814305 143.389271,28.8088033 143.669876,29.0894085 L144.605227,30.0247593 C144.839065,30.258597 145.213205,30.4456671 145.587345,30.4456671 L150.918845,30.4456671 C151.292985,30.4456671 151.620358,30.3053645 151.900963,30.0247593 L155.548831,26.3768913 C155.735901,26.1898212 155.876204,25.8156809 155.876204,25.4415406 Z" id="Shape"></path>
            </g>
        </g>
    </g>
</svg>