<?xml version="1.0" encoding="UTF-8"?>
<svg width="156.776838px" height="54.646504px" viewBox="0 0 156.776838 54.646504" version="1.1" xmlns="http://www.w3.org/2000/svg" xmlns:xlink="http://www.w3.org/1999/xlink">
    <title>lotterie_romande_black</title>
    <g id="Page-1" stroke="none" stroke-width="1" fill="none" fill-rule="evenodd">
        <g id="page-d'acceuil-(1440px)-" transform="translate(-514.699054, -7694.302013)" fill="#FFFFFF" fill-rule="nonzero">
            <g id="6-footer-" transform="translate(-1.609827, 7455.043791)">
                <g id="partenaires" transform="translate(155.420077, 226.219943)">
                    <g id="lotterie_romande_black" transform="translate(360.888805, 13.038279)">
                        <path d="M11.476872,24.8619469 C11.476872,18.8054771 16.344172,13.8552118 22.3453316,13.8552118 C28.3464912,13.8552118 33.2414463,18.8054771 33.2414463,24.8619469 C33.2414463,30.9184167 28.3464912,35.8411422 22.3453316,35.8411422 C16.3718271,35.868682 11.476872,30.9184167 11.476872,24.8619469 Z M156.776838,0 L156.776838,54.646504 L0,54.646504 L0,0 L156.776838,0 Z M5.1715062,21.3497475 C5.1715062,30.8631065 12.8596277,38.5788831 22.3729867,38.5788831 C31.8863457,38.5788831 39.5744672,30.8631065 39.5744672,21.3497475 C39.5744672,11.8087334 31.8863457,4.09295678 22.3729867,4.09295678 C12.8596277,4.09295678 5.1715062,11.8087334 5.1715062,21.3497475 Z M1.18916987,8.84963627 C2.95909713,5.8075738 5.3927471,3.20799315 8.24122378,1.18916987 L1.18916987,1.18916987 L1.18916987,8.84963627 Z M155.587668,1.18916987 L36.5047496,1.18916987 C42.8377706,5.64164312 46.9583825,12.9979033 46.9583825,21.3497475 C46.9583825,34.9560633 35.9516474,45.9904535 22.3729867,45.9904535 C13.3574198,45.9904535 5.47571244,41.1231536 1.18916987,33.8498587 L1.18916987,53.4573341 L155.587668,53.4573341 L155.587668,1.18916987 Z M69.7461959,11.0343902 L74.0880487,11.0343902 L74.0880487,20.1329225 L78.3469361,20.1329225 L78.3469361,23.8387077 L69.7461959,23.8387077 L69.7461959,11.0343902 L69.7461959,11.0343902 Z M79.9232776,17.3674112 C79.9232776,16.344172 80.1168634,15.4038981 80.4763799,14.5742447 C80.8358963,13.7445913 81.3336884,13.0532135 81.969756,12.4724561 C82.6058236,11.8916987 83.3525116,11.4492169 84.2374753,11.1450107 C85.0947838,10.8408044 86.0350576,10.6748738 87.0582968,10.6748738 C88.081536,10.6748738 89.0218099,10.8408044 89.8791184,11.1450107 C90.7364269,11.4492169 91.5107701,11.9193539 92.1468377,12.4724561 C92.7829053,13.0532135 93.2806973,13.7445913 93.6402138,14.5742447 C93.9997303,15.4038981 94.1933161,16.344172 94.1933161,17.3674112 C94.1933161,18.3906504 93.9997303,19.3309242 93.6402138,20.1882327 C93.2806973,21.0455413 92.7829053,21.7645742 92.1468377,22.3453316 C91.5107701,22.9537441 90.764082,23.3962259 89.8791184,23.7280873 C89.0218099,24.0599486 88.0538809,24.2258793 87.0582968,24.2258793 C86.0350576,24.2258793 85.0947838,24.0599486 84.2374753,23.7280873 C83.3801668,23.3962259 82.6058236,22.9537441 81.969756,22.3453316 C81.3336884,21.7369191 80.8358963,21.0178861 80.4763799,20.1882327 C80.1168634,19.3309242 79.9232776,18.3906504 79.9232776,17.3674112 Z M84.5140264,17.3674112 C84.5140264,17.7822379 84.5693366,18.1694095 84.7076122,18.5289259 C84.8458878,18.8884424 85.0118185,19.1926487 85.2330594,19.4415447 C85.4543003,19.6904407 85.7308514,19.8840265 86.0350576,20.0223021 C86.3392639,20.1605776 86.6987804,20.243543 87.0582968,20.243543 C87.4178133,20.243543 87.7496747,20.1882327 88.0538809,20.0223021 C88.3580872,19.8840265 88.6346383,19.6904407 88.8558792,19.4415447 C89.0771201,19.1926487 89.2707059,18.8884424 89.3813264,18.5289259 C89.5196019,18.1694095 89.5749122,17.7822379 89.5749122,17.3674112 C89.5749122,16.9525845 89.5196019,16.593068 89.3813264,16.2335515 C89.2430508,15.9016902 89.0771201,15.5974839 88.8558792,15.376243 C88.6346383,15.1550021 88.3580872,14.9614163 88.0538809,14.8231408 C87.7496747,14.6848652 87.4178133,14.629555 87.0582968,14.629555 C86.6987804,14.629555 86.366919,14.6848652 86.0350576,14.8231408 C85.7308514,14.9614163 85.4543003,15.1550021 85.2330594,15.376243 C85.0118185,15.5974839 84.8458878,15.9016902 84.7076122,16.2335515 C84.5969918,16.593068 84.5140264,16.9525845 84.5140264,17.3674112 Z M103.070607,23.8663628 L98.7564098,23.8663628 L98.7564098,14.6572101 L95.6037269,14.6572101 L95.6037269,11.0343902 L106.22329,11.0343902 L106.22329,14.6572101 L103.070607,14.6572101 L103.070607,23.8663628 Z M108.60163,11.0343902 L117.423611,11.0343902 L117.423611,14.629555 L112.666932,14.629555 L112.666932,15.7357595 L117.14706,15.7357595 L117.14706,19.0820282 L112.666932,19.0820282 L112.666932,20.2711981 L117.755473,20.2711981 L117.755473,23.8663628 L108.629285,23.8663628 L108.629285,11.0343902 L108.60163,11.0343902 Z M120.603949,11.0343902 L126.134972,11.0343902 C126.77104,11.0343902 127.379452,11.0897005 128.01552,11.227976 C128.651587,11.3662516 129.20469,11.5874925 129.674827,11.8916987 C130.172619,12.2235601 130.55979,12.6383868 130.863996,13.1914891 C131.168203,13.7169362 131.306478,14.4083141 131.306478,15.2103123 C131.306478,15.9846555 131.112892,16.6760334 130.725721,17.2844458 C130.338549,17.8928583 129.785447,18.3353402 129.066414,18.6672015 L132.329717,23.8663628 L127.379452,23.8663628 L124.918147,19.275614 L124.779871,19.275614 L124.779871,23.8663628 L120.603949,23.8663628 L120.603949,11.0343902 L120.603949,11.0343902 Z M124.752216,16.4547924 L125.609525,16.4547924 C125.7478,16.4547924 125.913731,16.4547924 126.079662,16.4271373 C126.245592,16.3994822 126.411523,16.344172 126.577454,16.2612067 C126.715729,16.1782413 126.854005,16.0676209 126.964625,15.9293453 C127.075246,15.7910697 127.130556,15.5974839 127.130556,15.376243 C127.130556,15.1550021 127.075246,14.9614163 126.992281,14.8231408 C126.909315,14.6848652 126.798695,14.6018999 126.660419,14.5189345 C126.522144,14.4636243 126.383868,14.4083141 126.245592,14.3806589 C126.079662,14.3530038 125.941386,14.3530038 125.803111,14.3530038 L124.779871,14.3530038 L124.779871,16.4547924 L124.752216,16.4547924 Z M133.933714,11.0343902 L138.275567,11.0343902 L138.275567,23.8663628 L133.933714,23.8663628 L133.933714,11.0343902 Z M141.013423,11.0343902 L149.835404,11.0343902 L149.835404,14.629555 L145.078725,14.629555 L145.078725,15.7357595 L149.558853,15.7357595 L149.558853,19.0820282 L145.078725,19.0820282 L145.078725,20.2711981 L150.167266,20.2711981 L150.167266,23.8663628 L141.041078,23.8663628 L141.041078,11.0343902 L141.013423,11.0343902 Z M50.5535472,29.756902 L56.0569148,29.756902 C56.6929824,29.756902 57.3013949,29.8122122 57.9374625,29.9504878 C58.545875,30.0887633 59.0989772,30.3100042 59.5967693,30.6142105 C60.0945613,30.9460718 60.4817329,31.3608985 60.7859392,31.9140008 C61.0901454,32.439448 61.228421,33.1308258 61.228421,33.9328241 C61.228421,34.7071673 61.0348352,35.3985451 60.6476636,36.0069576 C60.260492,36.6153701 59.7073897,37.0578519 58.9883568,37.3897133 L62.224005,42.5888746 L57.2737398,42.5888746 L54.8124347,38.0257809 L54.6741591,38.0257809 L54.6741591,42.5888746 L50.498237,42.5888746 L50.498237,29.756902 L50.5535472,29.756902 Z M54.7018142,35.1496491 L55.5314676,35.1496491 C55.6697432,35.1496491 55.8356739,35.1496491 56.0016045,35.121994 C56.1675352,35.0943388 56.3334659,35.0390286 56.4717415,34.9560633 C56.610017,34.8730979 56.7482926,34.7624775 56.8589131,34.6242019 C56.9695335,34.4859264 56.9971886,34.2923406 56.9971886,34.0710997 C56.9971886,33.8498587 56.9418784,33.656273 56.8589131,33.5179974 C56.7759477,33.3797218 56.6653273,33.2967565 56.5270517,33.2137911 C56.3887761,33.1584809 56.2505006,33.1031707 56.0845699,33.0755156 C55.9186392,33.0478605 55.7803636,33.0478605 55.6420881,33.0478605 L54.6188489,33.0478605 L54.6188489,35.1496491 L54.7018142,35.1496491 Z M62.943038,36.0899229 C62.943038,35.0666837 63.1366238,34.154065 63.4961403,33.3244116 C63.8556567,32.4947582 64.3534488,31.8033804 64.9895164,31.222623 C65.625584,30.6418656 66.3722721,30.1993838 67.2295806,29.8951775 C68.0868891,29.5909713 69.054818,29.4250406 70.0504021,29.4250406 C71.0736413,29.4250406 72.0139152,29.5909713 72.8712237,29.8951775 C73.7285322,30.1993838 74.5028754,30.6418656 75.138943,31.222623 C75.7750106,31.8033804 76.2728026,32.4947582 76.6323191,33.3244116 C76.9918356,34.154065 77.1854214,35.0666837 77.1854214,36.0899229 C77.1854214,37.1131621 76.9918356,38.053436 76.6323191,38.8830894 C76.2728026,39.7403979 75.7750106,40.4594308 75.138943,41.0401882 C74.5028754,41.6486007 73.7561873,42.0910825 72.8712237,42.4229439 C72.0139152,42.7548052 71.0736413,42.9207359 70.0504021,42.9207359 C69.0271629,42.9207359 68.0868891,42.7548052 67.2295806,42.4229439 C66.3722721,42.0910825 65.625584,41.6486007 64.9895164,41.0401882 C64.3534488,40.4317757 63.8556567,39.7127428 63.4961403,38.8830894 C63.1089687,38.053436 62.943038,37.1131621 62.943038,36.0899229 Z M67.5061317,36.0899229 C67.5061317,36.5047496 67.5614419,36.8919212 67.6997175,37.2514377 C67.8379931,37.6109542 68.0039237,37.9151604 68.2251646,38.1640564 C68.4464056,38.4129524 68.7229567,38.6065382 69.0271629,38.7448138 C69.3313692,38.8830894 69.6908857,38.9660547 70.0504021,38.9660547 C70.4099186,38.9660547 70.74178,38.8830894 71.0459862,38.7448138 C71.3501925,38.6065382 71.6267436,38.4129524 71.8479845,38.1640564 C72.0692254,37.9151604 72.2628112,37.6109542 72.3734316,37.2514377 C72.4840521,36.8919212 72.5670174,36.5047496 72.5670174,36.0899229 C72.5670174,35.6750962 72.5117072,35.3155798 72.3734316,34.9560633 C72.2351561,34.6242019 72.0692254,34.3199957 71.8479845,34.0987548 C71.6267436,33.8775139 71.3501925,33.6839281 71.0459862,33.5456525 C70.74178,33.4073769 70.4099186,33.3520667 70.0504021,33.3520667 C69.6908857,33.3520667 69.3590243,33.4073769 69.0271629,33.5456525 C68.7229567,33.6839281 68.4464056,33.8775139 68.2251646,34.0987548 C68.0039237,34.3476508 67.8379931,34.6242019 67.6997175,34.9560633 C67.5614419,35.2879246 67.5061317,35.6750962 67.5061317,36.0899229 Z M82.7994094,35.3155798 L82.9929952,42.5612195 L78.9830037,42.5612195 L78.9830037,29.756902 L84.6246469,29.756902 L86.9476764,36.6430252 L87.0306417,36.6430252 L89.049465,29.756902 L94.8570388,29.756902 L94.8570388,42.5612195 L90.6534616,42.5612195 L90.7917371,35.37089 L90.6811167,35.3432349 L88.3027769,42.5612195 L85.2607145,42.5612195 L82.9100298,35.3155798 L82.7994094,35.3155798 L82.7994094,35.3155798 Z M101.411301,29.756902 L105.974394,29.756902 L110.952315,42.5612195 L106.278601,42.5612195 L105.614878,40.6806717 L101.549576,40.6806717 L100.913509,42.5612195 L96.3504149,42.5612195 L101.411301,29.756902 Z M103.62371,34.2093752 L102.572815,37.3897133 L104.646949,37.3897133 L103.62371,34.2093752 Z M112.501001,29.756902 L116.787544,29.756902 L120.438019,36.2558536 L120.520984,36.2558536 L120.355053,29.756902 L124.44801,29.756902 L124.44801,42.5612195 L120.023192,42.5612195 L116.483337,36.4494394 L116.400372,36.4494394 L116.593958,42.5612195 L112.501001,42.5612195 L112.501001,29.756902 L112.501001,29.756902 Z M126.798695,42.5612195 L126.798695,29.756902 L131.583029,29.756902 C132.606269,29.756902 133.574198,29.8675224 134.486816,30.0611082 C135.399435,30.254694 136.229088,30.6142105 136.920466,31.0843474 C137.639499,31.5821395 138.192601,32.2182071 138.607428,33.0202053 C139.022255,33.8222036 139.243496,34.8454428 139.243496,36.0622678 C139.243496,37.1961275 139.04991,38.1640564 138.635083,38.9660547 C138.220257,39.7957081 137.694809,40.4594308 137.003432,40.984878 C136.339709,41.5103251 135.537711,41.8974967 134.680402,42.1463928 C133.795438,42.3952888 132.88282,42.5335643 131.942546,42.5335643 L126.798695,42.5335643 L126.798695,42.5612195 Z M130.946962,33.4073769 L130.946962,38.8554343 L131.74896,38.8554343 C132.772199,38.8554343 133.546542,38.6341934 134.07199,38.1917115 C134.625092,37.7492297 134.873988,37.0301968 134.873988,36.0346127 C134.873988,35.2049593 134.597437,34.5688917 134.07199,34.0987548 C133.518887,33.6286178 132.799854,33.4073769 131.887236,33.4073769 L130.946962,33.4073769 L130.946962,33.4073769 Z M141.041078,29.756902 L149.835404,29.756902 L149.835404,33.3244116 L145.078725,33.3244116 L145.078725,34.4306161 L149.531198,34.4306161 L149.531198,37.7768848 L145.078725,37.7768848 L145.078725,38.9660547 L150.167266,38.9660547 L150.167266,42.5335643 L141.041078,42.5335643 L141.041078,29.756902 Z" id="Shape"></path>
                    </g>
                </g>
            </g>
        </g>
    </g>
</svg>